<?xml version="1.0" standalone="no"?>
<!DOCTYPE svg PUBLIC "-//W3C//DTD SVG 20010904//EN"
 "http://www.w3.org/TR/2001/REC-SVG-20010904/DTD/svg10.dtd">
<svg version="1.0" xmlns="http://www.w3.org/2000/svg"
 width="1916.000000pt" height="841.000000pt" viewBox="0 0 1916.000000 841.000000"
 preserveAspectRatio="xMidYMid meet">

<g transform="translate(0.000000,841.000000) scale(0.100000,-0.100000)"
fill="#000000" stroke="none">
<path d="M455 7945 c13 -28 16 -165 4 -187 -12 -22 3 -25 23 -5 7 8 23 19 36
26 18 10 22 20 22 64 0 69 -9 100 -27 93 -8 -3 -26 2 -41 12 -25 16 -26 16
-17 -3z"/>
<path d="M740 7825 c0 -128 1 -135 20 -135 17 0 20 7 20 49 l0 48 59 7 c78 9
111 34 111 85 0 63 -29 81 -128 81 l-82 0 0 -135z m164 73 c20 -33 -4 -53 -68
-56 l-56 -3 0 41 0 41 56 -3 c41 -2 60 -8 68 -20z"/>
<path d="M990 7825 c0 -128 1 -135 20 -135 19 0 20 7 20 135 0 128 -1 135 -20
135 -19 0 -20 -7 -20 -135z"/>
<path d="M372 7928 c-30 -19 -32 -24 -32 -78 0 -51 3 -60 25 -74 25 -16 25
-16 26 11 2 27 2 27 6 3 3 -14 9 -29 14 -34 11 -12 12 163 1 181 -5 9 -16 7
-40 -9z"/>
<path d="M1070 7818 c0 -40 3 -83 6 -95 8 -29 57 -49 88 -35 12 5 34 8 49 5
l27 -5 0 101 c0 94 -1 101 -20 101 -18 0 -20 -7 -20 -57 0 -69 -17 -107 -49
-111 -33 -5 -41 12 -41 96 0 65 -2 72 -20 72 -18 0 -20 -7 -20 -72z"/>
<path d="M1280 7789 c0 -92 1 -99 20 -99 18 0 20 7 20 70 0 64 2 71 26 87 25
16 27 16 40 -2 9 -12 14 -45 14 -87 0 -61 2 -68 20 -68 18 0 20 7 20 75 0 63
3 76 19 85 40 21 51 4 51 -81 0 -72 2 -79 20 -79 18 0 20 7 20 84 0 64 -4 88
-16 100 -18 18 -56 21 -85 5 -14 -7 -24 -7 -33 0 -6 5 -40 10 -74 9 l-62 -1 0
-98z"/>
<path d="M1623 7875 c-55 -39 -51 -150 7 -180 45 -23 78 -19 113 17 30 29 30
32 12 39 -14 5 -24 2 -34 -12 -23 -33 -91 -20 -91 18 0 8 22 13 68 15 l67 3
-2 33 c-3 69 -83 107 -140 67z m78 -25 c36 -20 23 -40 -26 -40 -48 0 -62 19
-27 39 22 13 29 13 53 1z"/>
<path d="M1822 7870 c-27 -25 -36 -60 -29 -107 8 -45 31 -71 72 -79 69 -13
124 48 112 124 -12 73 -103 110 -155 62z m106 -38 c29 -37 1 -112 -43 -112
-33 0 -55 26 -55 64 0 66 59 95 98 48z"/>
<path d="M2024 7842 l35 -49 -35 -51 -35 -52 25 0 c17 0 31 10 43 30 9 17 21
30 24 30 4 0 17 -13 29 -30 14 -20 30 -30 47 -30 l25 0 -37 51 -38 50 32 44
c36 51 37 55 12 55 -11 0 -30 -14 -44 -31 l-24 -31 -22 31 c-15 21 -31 31 -48
31 l-25 0 36 -48z"/>
<path d="M442 7795 c0 -16 2 -22 5 -12 2 9 2 23 0 30 -3 6 -5 -1 -5 -18z"/>
<path d="M333 7695 c0 -8 4 -12 9 -9 5 3 6 10 3 15 -9 13 -12 11 -12 -6z"/>
<path d="M362 7690 c0 -14 2 -19 5 -12 2 6 2 18 0 25 -3 6 -5 1 -5 -13z"/>
<path d="M430 7688 c0 -10 7 -18 15 -18 8 0 15 8 15 18 0 10 -7 19 -15 19 -8
0 -15 -9 -15 -19z"/>
<path d="M470 7699 c0 -5 5 -7 10 -4 6 3 10 8 10 11 0 2 -4 4 -10 4 -5 0 -10
-5 -10 -11z"/>
<path d="M514 7689 c0 -10 4 -19 8 -19 4 0 8 6 8 14 0 8 -4 17 -8 20 -4 2 -8
-4 -8 -15z"/>
<path d="M547 7690 c3 -11 7 -20 9 -20 2 0 4 9 4 20 0 11 -4 20 -9 20 -5 0 -7
-9 -4 -20z"/>
<path d="M4060 7663 c0 -15 78 -301 85 -312 10 -17 43 -13 49 7 2 9 17 62 32
117 15 55 30 104 34 108 4 4 22 -47 40 -113 49 -181 68 -177 123 31 43 158 44
169 17 169 -20 0 -22 -4 -56 -145 -9 -38 -20 -74 -24 -78 -3 -4 -14 21 -24 55
-48 175 -46 169 -74 166 -24 -3 -29 -11 -59 -117 -18 -62 -34 -116 -36 -118
-3 -2 -17 49 -33 114 -26 104 -32 118 -51 121 -13 2 -23 0 -23 -5z"/>
<path d="M7820 7465 c0 -198 1 -205 20 -205 19 0 20 7 20 205 0 198 -1 205
-20 205 -19 0 -20 -7 -20 -205z"/>
<path d="M4720 7505 l0 -155 25 0 25 0 0 155 0 155 -25 0 -25 0 0 -155z"/>
<path d="M6010 7505 c0 -148 1 -155 20 -155 18 0 20 7 20 60 l0 60 48 0 c72 0
115 16 135 49 24 41 21 74 -9 110 -25 31 -27 31 -120 31 l-94 0 0 -155z m178
103 c7 -7 12 -24 12 -38 0 -40 -18 -50 -87 -50 l-63 0 0 50 0 50 63 0 c36 0
68 -5 75 -12z"/>
<path d="M6290 7505 c0 -148 1 -155 20 -155 19 0 20 7 20 155 0 148 -1 155
-20 155 -19 0 -20 -7 -20 -155z"/>
<path d="M8050 7505 l0 -155 95 0 c88 0 95 1 95 20 0 18 -7 20 -75 20 l-75 0
0 135 c0 128 -1 135 -20 135 -19 0 -20 -7 -20 -155z"/>
<path d="M8230 7640 c0 -18 7 -20 55 -20 l55 0 0 -135 c0 -128 1 -135 20 -135
19 0 20 7 20 135 l0 135 50 0 c43 0 50 3 50 20 0 19 -7 20 -125 20 -118 0
-125 -1 -125 -20z"/>
<path d="M8520 7505 l0 -155 89 0 c100 0 132 15 157 76 30 72 11 171 -41 212
-24 19 -41 22 -116 22 l-89 0 0 -155z m185 91 c31 -32 41 -85 24 -138 -17 -51
-44 -68 -111 -68 l-48 0 0 115 0 115 55 0 c46 0 60 -4 80 -24z"/>
<path d="M4506 7550 c-31 -38 -42 -88 -27 -133 15 -45 40 -66 85 -74 46 -7 88
10 109 46 16 28 16 29 -5 34 -15 4 -29 -1 -44 -18 -28 -30 -57 -32 -84 -5 -40
40 -28 50 66 50 l87 0 -7 31 c-3 17 -6 35 -6 39 0 4 -11 19 -25 34 -20 21 -33
26 -74 26 -43 0 -53 -4 -75 -30z m119 -30 c10 -11 16 -23 13 -26 -3 -3 -31 -4
-62 -2 -56 3 -56 3 -41 26 20 28 65 29 90 2z"/>
<path d="M4844 7557 c-34 -30 -45 -116 -21 -164 31 -60 125 -69 167 -16 24 31
26 49 4 57 -19 7 -17 8 -33 -21 -16 -31 -57 -40 -81 -18 -22 20 -28 92 -10
126 14 26 66 26 82 -1 11 -17 58 -29 58 -15 0 16 -31 63 -45 69 -37 14 -94 6
-121 -17z"/>
<path d="M5062 7560 c-33 -31 -48 -92 -34 -138 17 -57 45 -77 104 -77 43 0 53
4 79 33 23 26 29 42 29 78 0 51 -21 98 -49 114 -34 18 -105 12 -129 -10z m112
-36 c10 -10 16 -33 16 -64 0 -39 -4 -52 -22 -64 -32 -23 -54 -20 -77 10 -41
52 -17 134 39 134 16 0 36 -7 44 -16z"/>
<path d="M5280 7457 c0 -117 0 -118 23 -115 21 3 22 9 25 88 3 93 13 112 51
108 26 -3 26 -5 31 -98 5 -87 7 -95 25 -95 18 0 20 8 23 85 3 91 12 110 48
110 34 0 44 -28 44 -119 0 -74 2 -81 20 -81 19 0 20 7 20 98 0 118 -12 142
-69 142 -20 0 -43 -6 -49 -12 -10 -10 -17 -10 -31 -1 -11 7 -51 11 -90 11
l-71 -2 0 -119z"/>
<path d="M5677 7569 c-43 -25 -61 -122 -33 -178 36 -68 150 -68 187 1 9 16 8
23 -2 29 -22 14 -37 10 -44 -11 -14 -45 -105 -27 -105 20 0 18 7 20 81 20 l82
0 -6 42 c-8 57 -43 88 -100 88 -23 0 -50 -5 -60 -11z m101 -41 c26 -26 13 -38
-43 -38 -57 0 -66 8 -39 34 18 19 65 21 82 4z"/>
<path d="M6390 7486 c0 -109 15 -140 66 -138 16 1 48 2 72 3 l42 2 0 113 c0
107 -1 114 -20 114 -18 0 -20 -7 -20 -82 0 -46 -4 -88 -8 -94 -12 -18 -50 -26
-72 -14 -18 10 -20 20 -20 100 0 83 -1 90 -20 90 -19 0 -20 -7 -20 -94z"/>
<path d="M6630 7465 c0 -108 1 -115 20 -115 18 0 20 7 20 79 0 89 14 114 59
109 26 -3 26 -4 29 -95 2 -83 5 -93 21 -93 17 0 19 10 22 85 4 90 12 105 55
105 36 0 44 -20 44 -107 0 -76 2 -83 20 -83 18 0 20 7 20 79 0 80 -11 129 -33
143 -21 13 -70 9 -89 -9 -17 -15 -19 -15 -36 0 -21 19 -64 22 -93 7 -13 -7
-19 -7 -19 0 0 5 -9 10 -20 10 -19 0 -20 -7 -20 -115z"/>
<path d="M7014 7549 c-25 -26 -29 -38 -29 -89 0 -48 4 -63 24 -84 47 -50 137
-42 166 15 13 25 13 28 -3 31 -9 2 -27 -6 -39 -19 -22 -23 -58 -30 -79 -15
-11 7 -34 45 -34 56 0 3 38 6 85 6 95 0 100 5 71 75 -17 40 -42 55 -93 55 -31
0 -46 -7 -69 -31z m124 -37 c14 -22 14 -22 -52 -22 -64 0 -66 1 -56 21 23 42
80 43 108 1z"/>
<path d="M7264 7565 c-53 -36 -58 -146 -10 -194 37 -37 105 -37 142 1 50 50
41 168 -15 198 -28 15 -93 12 -117 -5z m111 -48 c37 -53 6 -137 -50 -137 -73
0 -92 133 -22 159 29 11 55 3 72 -22z"/>
<path d="M7460 7574 c0 -4 16 -29 36 -56 l35 -50 -41 -59 -41 -59 25 0 c18 0
32 10 48 35 13 19 28 35 35 35 6 0 21 -16 33 -35 15 -25 29 -35 46 -35 24 0
24 1 -16 60 l-41 60 41 55 c40 55 41 55 15 55 -17 0 -31 -10 -47 -35 -13 -19
-28 -35 -33 -35 -6 0 -19 16 -29 35 -14 25 -26 35 -43 35 -12 0 -23 -3 -23 -6z"/>
<path d="M4118 7103 c-3 -10 -17 -48 -31 -85 -14 -38 -22 -68 -17 -68 5 0 12
11 16 25 5 21 12 25 45 25 32 0 41 -5 51 -25 6 -14 15 -25 19 -25 11 0 -54
163 -67 167 -6 2 -14 -4 -16 -14z m42 -74 c0 -5 -13 -9 -30 -9 -19 0 -28 4
-25 13 2 6 9 26 15 42 l12 30 14 -34 c8 -18 14 -37 14 -42z"/>
<path d="M5220 7088 c0 -25 -3 -29 -12 -20 -28 28 -68 -2 -68 -51 0 -46 14
-61 54 -62 l36 -2 0 84 c0 46 -2 83 -5 83 -3 0 -5 -14 -5 -32z m0 -73 c0 -43
-30 -64 -54 -39 -35 34 -5 105 35 84 13 -7 19 -21 19 -45z"/>
<path d="M7959 7088 c-1 -18 -1 -47 0 -64 3 -41 -23 -68 -50 -54 -13 7 -19 21
-19 44 0 36 21 62 42 50 10 -5 10 -4 2 5 -9 10 -17 10 -33 2 -16 -9 -21 -21
-21 -56 0 -49 15 -64 63 -62 l27 2 0 83 c0 79 -8 116 -11 50z"/>
<path d="M9523 7100 c-3 -11 -10 -20 -16 -20 -7 0 -7 -4 1 -12 7 -7 13 -37 14
-67 l1 -56 6 60 c5 51 9 60 26 60 17 0 21 -9 26 -60 l6 -60 1 57 c1 31 7 60
13 64 8 4 7 9 -2 15 -11 8 -10 12 5 24 18 14 18 15 2 15 -10 0 -20 -9 -23 -20
-3 -13 -14 -20 -29 -20 -28 0 -31 15 -6 29 16 10 16 10 -1 11 -11 0 -21 -9
-24 -20z"/>
<path d="M9800 7110 c0 -5 5 -10 10 -10 6 0 10 5 10 10 0 6 -4 10 -10 10 -5 0
-10 -4 -10 -10z"/>
<path d="M10184 7035 c0 -49 1 -71 3 -48 2 23 2 64 0 90 -2 26 -3 8 -3 -42z"/>
<path d="M7501 7098 c-1 -10 -6 -18 -12 -18 -8 0 -8 -4 -1 -13 6 -7 12 -35 14
-61 2 -33 8 -51 18 -54 12 -4 13 -2 3 9 -7 7 -13 35 -13 61 0 32 4 48 13 48 8
0 9 3 1 8 -6 4 -14 14 -17 22 -4 12 -6 11 -6 -2z"/>
<path d="M8081 7098 c-1 -10 -6 -18 -12 -18 -8 0 -8 -4 -1 -13 6 -7 12 -35 14
-61 2 -33 8 -51 18 -54 12 -4 13 -2 3 9 -7 7 -13 35 -13 61 0 32 4 48 13 48 8
0 9 3 1 8 -6 4 -14 14 -17 22 -4 12 -6 11 -6 -2z"/>
<path d="M8841 7098 c-1 -10 -6 -18 -12 -18 -8 0 -8 -4 -1 -13 6 -7 12 -35 14
-61 2 -33 8 -51 18 -54 12 -4 13 -2 3 9 -7 7 -13 35 -13 61 0 32 4 48 13 48 8
0 9 3 1 8 -6 4 -14 14 -17 22 -4 12 -6 11 -6 -2z"/>
<path d="M10121 7098 c-1 -10 -6 -18 -12 -18 -8 0 -8 -4 -1 -13 6 -7 12 -35
14 -61 2 -33 8 -51 18 -54 12 -4 13 -2 3 9 -7 7 -13 35 -13 61 0 32 4 48 13
48 8 0 9 3 1 8 -6 4 -14 14 -17 22 -4 12 -6 11 -6 -2z"/>
<path d="M4248 7069 c-28 -16 -25 -95 3 -110 27 -14 69 3 69 27 0 13 -4 11
-18 -6 -16 -19 -22 -21 -40 -11 -30 16 -31 76 -1 91 16 9 25 8 40 -6 10 -9 19
-12 19 -6 0 11 -31 32 -47 32 -4 0 -16 -5 -25 -11z"/>
<path d="M4356 7058 c-9 -12 -16 -32 -16 -43 0 -32 29 -67 52 -63 22 3 59 48
39 48 -6 0 -11 -6 -11 -14 0 -25 -34 -29 -52 -6 -22 27 -22 39 -2 68 18 26 27
27 48 6 14 -13 16 -13 16 -1 0 32 -53 35 -74 5z"/>
<path d="M4475 7064 c-11 -11 -15 -30 -13 -58 3 -34 7 -42 30 -50 22 -8 32 -6
48 9 11 10 18 20 16 23 -3 2 -12 -3 -21 -12 -20 -20 -29 -20 -49 0 -26 25 -19
34 29 34 51 0 59 16 25 50 -24 24 -43 25 -65 4z m53 -6 c23 -23 13 -38 -23
-38 -39 0 -48 21 -17 39 22 13 26 13 40 -1z"/>
<path d="M4603 7073 c-7 -2 -13 -15 -13 -28 0 -18 8 -26 35 -35 37 -12 46 -34
19 -44 -21 -8 -20 -8 -38 10 -14 13 -16 13 -16 0 0 -32 72 -32 84 0 8 22 -1
34 -40 50 -19 8 -34 18 -34 23 0 18 33 21 51 5 21 -19 27 -6 7 14 -12 12 -33
14 -55 5z"/>
<path d="M4718 7069 c-30 -17 -20 -40 22 -56 44 -17 48 -24 25 -43 -12 -10
-20 -9 -40 4 -14 9 -25 12 -25 7 0 -20 41 -34 66 -22 26 11 33 48 12 56 -69
24 -70 25 -58 40 16 19 25 19 44 -1 14 -13 16 -13 16 -1 0 25 -34 33 -62 16z"/>
<path d="M4903 7073 c-7 -2 -13 -11 -13 -20 0 -12 2 -12 16 1 18 18 24 19 43
7 21 -13 6 -39 -25 -43 -38 -4 -54 -32 -32 -55 14 -13 22 -14 41 -6 18 9 28 8
36 0 8 -8 11 2 11 40 0 69 -28 96 -77 76z m57 -78 c0 -22 -38 -39 -56 -24 -11
9 -12 15 -3 25 15 19 59 18 59 -1z"/>
<path d="M5010 7013 c0 -36 4 -63 10 -63 6 0 10 22 10 49 0 51 16 76 43 65 11
-4 17 -22 20 -62 l3 -57 2 63 c2 66 4 64 -55 66 l-33 1 0 -62z"/>
<path d="M5342 7011 c2 -62 2 -63 5 -14 4 57 24 83 48 63 8 -6 16 -34 18 -63
l3 -52 2 51 c4 96 58 97 65 1 l3 -52 2 62 c2 54 0 62 -18 68 -12 4 -27 2 -34
-4 -7 -6 -16 -8 -20 -4 -4 4 -23 8 -41 8 l-35 2 2 -66z"/>
<path d="M5542 7068 c-7 -7 -12 -16 -12 -21 0 -5 7 -1 16 7 20 20 29 20 49 0
19 -20 16 -24 -26 -33 -43 -9 -59 -35 -36 -58 14 -14 22 -15 47 -6 21 8 30 8
34 -1 2 -6 5 14 5 45 1 59 -10 79 -44 79 -12 0 -26 -5 -33 -12z m62 -73 c-9
-23 -44 -39 -56 -27 -18 18 0 42 31 42 23 0 29 -4 25 -15z"/>
<path d="M5662 7010 c1 -59 2 -61 5 -15 4 52 23 78 49 68 10 -3 14 -22 14 -59
0 -30 5 -54 10 -54 13 0 13 86 0 111 -8 14 -20 18 -45 16 l-35 -2 2 -65z"/>
<path d="M5803 7073 c-7 -2 -13 -11 -13 -20 0 -12 2 -12 16 1 18 18 24 19 43
7 21 -13 6 -39 -25 -43 -38 -4 -54 -32 -32 -55 14 -13 22 -14 41 -6 18 9 28 8
36 0 8 -8 11 2 11 40 0 69 -28 96 -77 76z m57 -78 c0 -22 -38 -39 -56 -24 -11
9 -12 15 -3 25 15 19 59 18 59 -1z"/>
<path d="M5925 7064 c-8 -9 -15 -31 -15 -49 0 -43 25 -69 57 -60 19 5 24 2 21
-11 -6 -31 -34 -40 -57 -20 -12 11 -21 14 -21 7 0 -20 45 -35 69 -22 19 10 21
20 21 89 l0 77 -30 2 c-16 1 -36 -5 -45 -13z m65 -49 c0 -23 -6 -38 -18 -44
-28 -15 -52 5 -52 44 0 39 24 59 52 44 12 -6 18 -21 18 -44z"/>
<path d="M6057 7062 c-35 -38 -13 -112 33 -112 19 0 55 29 46 37 -3 3 -12 -2
-21 -11 -20 -20 -29 -20 -49 0 -26 25 -19 34 29 34 37 0 45 3 45 18 0 22 -30
52 -52 52 -8 0 -22 -8 -31 -18z m47 2 c9 -3 16 -15 16 -25 0 -14 -7 -19 -29
-19 -37 0 -46 13 -25 34 18 18 17 18 38 10z"/>
<path d="M6230 7075 c0 -6 10 -38 22 -73 23 -62 23 -64 4 -78 -11 -7 -16 -17
-13 -21 4 -4 11 -2 17 3 14 14 70 174 61 174 -5 0 -14 -20 -21 -45 -17 -61
-27 -64 -41 -13 -12 42 -29 73 -29 53z"/>
<path d="M6368 7069 c-26 -15 -25 -95 1 -109 11 -5 24 -10 30 -10 20 0 51 40
51 65 0 26 -31 65 -52 65 -7 0 -21 -5 -30 -11z m56 -21 c20 -29 20 -41 -2 -68
-16 -19 -22 -21 -40 -11 -40 21 -24 99 20 101 4 0 14 -10 22 -22z"/>
<path d="M6482 7028 c-2 -63 5 -73 55 -73 l33 0 -1 65 -1 65 -8 -54 c-15 -98
-65 -95 -73 4 l-3 50 -2 -57z"/>
<path d="M6612 7010 c2 -63 2 -63 5 -13 3 39 9 56 24 67 20 14 20 14 -5 12
-25 -1 -26 -3 -24 -66z"/>
<path d="M6762 7068 c-7 -7 -12 -16 -12 -21 0 -5 7 -1 16 7 20 20 29 20 49 0
19 -20 16 -24 -26 -33 -43 -9 -59 -35 -36 -58 14 -14 22 -15 47 -6 21 8 30 8
34 -1 2 -6 5 14 5 45 1 59 -10 79 -44 79 -12 0 -26 -5 -33 -12z m62 -73 c-9
-23 -44 -39 -56 -27 -18 18 0 42 31 42 23 0 29 -4 25 -15z"/>
<path d="M6890 7060 c-11 -11 -20 -31 -20 -45 0 -27 31 -65 53 -65 15 0 47 31
47 45 0 5 -9 -1 -20 -13 -24 -25 -31 -27 -48 -10 -24 24 -9 98 19 98 4 0 15
-7 24 -16 9 -9 18 -14 21 -11 8 7 -26 37 -42 37 -8 0 -23 -9 -34 -20z"/>
<path d="M7006 7064 c-31 -30 -12 -114 25 -114 21 0 49 21 49 36 0 13 -4 11
-18 -6 -21 -26 -49 -18 -58 15 -13 53 23 90 57 59 21 -19 27 -6 7 14 -17 17
-44 15 -62 -4z"/>
<path d="M7120 7060 c-11 -11 -20 -31 -20 -45 0 -27 31 -65 53 -65 47 0 71 88
32 116 -26 19 -41 18 -65 -6z m51 0 c28 -15 26 -75 -3 -91 -18 -10 -24 -8 -40
11 -22 27 -22 39 -2 68 17 25 19 26 45 12z"/>
<path d="M7242 7028 c-2 -63 5 -73 55 -73 l33 0 -1 65 -1 65 -8 -54 c-15 -98
-65 -95 -73 4 l-3 50 -2 -57z"/>
<path d="M7372 7010 c1 -59 2 -61 5 -15 4 52 23 78 49 68 10 -3 14 -22 14 -59
0 -30 5 -54 10 -54 13 0 13 86 0 111 -8 14 -20 18 -45 16 l-35 -2 2 -65z"/>
<path d="M7638 7069 c-10 -5 -18 -14 -18 -20 0 -5 11 -3 24 6 26 17 56 11 56
-11 0 -15 -6 -18 -52 -28 -21 -5 -28 -12 -28 -31 0 -28 30 -41 60 -25 13 7 20
7 20 0 0 -5 3 -10 8 -10 11 0 1 114 -12 122 -15 10 -38 9 -58 -3z m62 -74 c0
-18 -34 -37 -54 -29 -19 7 -21 30 -3 37 26 11 57 7 57 -8z"/>
<path d="M7751 7010 l1 -65 8 54 c15 98 65 95 73 -4 l3 -50 2 57 c2 63 -5 73
-55 73 l-33 0 1 -65z"/>
<path d="M8142 7010 c2 -63 2 -63 5 -13 3 39 9 56 24 67 20 14 20 14 -5 12
-25 -1 -26 -3 -24 -66z"/>
<path d="M8228 7069 c-10 -5 -18 -14 -18 -20 0 -5 11 -3 24 6 26 17 56 11 56
-11 0 -15 -6 -18 -52 -28 -21 -5 -28 -12 -28 -31 0 -28 30 -41 60 -25 13 7 20
7 20 0 0 -5 3 -10 8 -10 11 0 1 114 -12 122 -15 10 -38 9 -58 -3z m62 -74 c0
-18 -34 -37 -54 -29 -19 7 -21 30 -3 37 26 11 57 7 57 -8z"/>
<path d="M8340 7013 c0 -36 4 -63 10 -63 6 0 10 22 10 49 0 51 16 76 43 65 11
-4 17 -22 20 -62 l3 -57 2 63 c2 66 4 64 -55 66 l-33 1 0 -62z"/>
<path d="M8483 7073 c-7 -2 -13 -15 -13 -28 0 -18 8 -26 35 -35 37 -12 46 -34
19 -44 -21 -8 -20 -8 -38 10 -14 13 -16 13 -16 0 0 -32 72 -32 84 0 8 22 -1
34 -40 50 -19 8 -34 18 -34 23 0 18 33 21 51 5 21 -19 27 -6 7 14 -12 12 -33
14 -55 5z"/>
<path d="M8603 7073 c-7 -2 -13 -11 -13 -20 0 -12 2 -12 16 1 18 18 24 19 43
7 21 -13 6 -39 -25 -43 -38 -4 -54 -32 -32 -55 14 -13 22 -14 41 -6 18 9 28 8
36 0 8 -8 11 2 11 40 0 69 -28 96 -77 76z m57 -78 c0 -22 -38 -39 -56 -24 -11
9 -12 15 -3 25 15 19 59 18 59 -1z"/>
<path d="M8726 7058 c-9 -12 -16 -32 -16 -43 0 -32 29 -67 52 -63 22 3 59 48
39 48 -6 0 -11 -6 -11 -14 0 -25 -34 -29 -52 -6 -22 27 -22 39 -2 68 18 26 27
27 48 6 14 -13 16 -13 16 -1 0 32 -53 35 -74 5z"/>
<path d="M8903 7015 c0 -38 2 -53 4 -32 2 20 2 52 0 70 -2 17 -4 1 -4 -38z"/>
<path d="M8957 7062 c-34 -38 -10 -112 36 -112 26 0 47 29 47 65 0 58 -49 85
-83 47z m57 -8 c21 -20 20 -58 0 -79 -20 -20 -35 -15 -53 17 -13 23 -13 29 2
52 20 30 30 32 51 10z"/>
<path d="M9082 7010 c1 -59 2 -61 5 -15 4 52 23 78 49 68 10 -3 14 -22 14 -59
0 -30 5 -54 10 -54 13 0 13 86 0 111 -8 14 -20 18 -45 16 l-35 -2 2 -65z"/>
<path d="M9209 7064 c-17 -20 -1 -48 30 -52 27 -4 39 -31 20 -43 -19 -12 -25
-11 -43 7 -9 8 -16 11 -16 6 0 -18 30 -34 54 -28 46 12 43 61 -5 71 -34 8 -47
24 -28 36 19 12 25 11 43 -7 9 -8 16 -12 16 -7 0 31 -49 43 -71 17z"/>
<path d="M9397 7062 c-35 -38 -13 -112 33 -112 19 0 55 29 46 37 -3 3 -12 -2
-21 -11 -20 -20 -29 -20 -49 0 -26 25 -19 34 29 34 37 0 45 3 45 18 0 22 -30
52 -52 52 -8 0 -22 -8 -31 -18z m47 2 c9 -3 16 -15 16 -25 0 -14 -7 -19 -29
-19 -37 0 -46 13 -25 34 18 18 17 18 38 10z"/>
<path d="M9643 7015 c0 -38 2 -53 4 -32 2 20 2 52 0 70 -2 17 -4 1 -4 -38z"/>
<path d="M9700 7060 c-11 -11 -20 -31 -20 -45 0 -27 31 -65 53 -65 15 0 47 31
47 45 0 5 -9 -1 -20 -13 -24 -25 -31 -27 -48 -10 -24 24 -9 98 19 98 4 0 15
-7 24 -16 9 -9 18 -14 21 -11 8 7 -26 37 -42 37 -8 0 -23 -9 -34 -20z"/>
<path d="M9800 7015 c0 -37 4 -65 10 -65 6 0 10 28 10 65 0 37 -4 65 -10 65
-6 0 -10 -28 -10 -65z"/>
<path d="M9870 7060 c-47 -47 -2 -128 55 -102 14 7 25 16 25 22 0 6 -12 3 -26
-7 -26 -17 -27 -16 -46 8 l-20 24 46 3 c37 3 46 7 46 22 0 22 -26 50 -46 50
-8 0 -23 -9 -34 -20z m54 -6 c21 -21 12 -34 -25 -34 -30 0 -38 17 -17 38 16
16 23 15 42 -4z"/>
<path d="M9980 7013 c0 -36 4 -63 10 -63 6 0 10 22 10 49 0 51 16 76 43 65 11
-4 17 -22 20 -62 l3 -57 2 63 c2 66 4 64 -55 66 l-33 1 0 -62z"/>
<path d="M10222 7069 c3 -8 14 -40 24 -73 18 -57 18 -58 -1 -72 -10 -8 -15
-17 -11 -21 4 -5 14 0 21 11 19 26 66 166 55 166 -4 0 -14 -22 -21 -50 -7 -27
-16 -50 -20 -50 -3 0 -12 20 -19 45 -7 25 -17 48 -23 52 -6 4 -8 0 -5 -8z"/>
<path d="M10330 6960 c0 -5 5 -10 10 -10 6 0 10 5 10 10 0 6 -4 10 -10 10 -5
0 -10 -4 -10 -10z"/>
<path d="M363 6683 c-36 -7 -71 -51 -78 -96 -4 -23 -5 -139 -3 -257 2 -163 6
-220 17 -236 33 -49 30 -49 461 -51 241 -1 411 2 420 7 13 9 13 10 0 11 -8 0
-4 5 10 9 23 7 23 8 -10 10 -33 2 -33 3 -10 10 14 4 18 9 10 10 -8 1 -4 6 10
10 l25 8 -25 1 c-20 1 -22 3 -10 11 13 9 13 10 0 11 -8 0 -4 5 10 9 23 7 23 8
-10 10 -33 2 -33 3 -10 10 14 4 18 9 10 10 -8 1 -4 6 10 10 l25 8 -25 1 c-20
1 -22 3 -10 11 13 9 13 10 0 11 -8 0 -4 5 10 9 23 7 23 8 -10 10 -33 2 -33 3
-10 10 14 4 21 9 15 10 -48 8 -60 12 -72 21 -9 8 -13 8 -13 0 0 -6 -13 -11
-30 -11 -28 0 -30 2 -30 40 0 36 -2 40 -25 40 -23 0 -25 -4 -25 -41 0 -38 -1
-40 -27 -37 -28 3 -28 3 -31 91 l-3 87 31 0 c27 0 30 -3 30 -30 0 -25 4 -30
25 -30 21 0 25 5 25 30 0 27 3 30 30 30 27 0 30 -3 30 -32 0 -25 3 -29 12 -20
7 7 28 12 47 12 27 0 32 3 21 10 -12 8 -10 10 10 11 l25 1 -25 8 c-14 4 -18 9
-10 9 13 1 13 2 0 11 -12 8 -10 10 10 11 20 1 18 3 -10 9 -28 6 -30 8 -10 9
20 1 22 3 10 11 -12 8 -10 10 10 11 l25 1 -25 8 c-14 4 -18 9 -10 9 13 1 13 2
0 11 -12 8 -10 10 10 11 20 1 18 3 -10 9 -28 6 -30 8 -10 9 20 1 22 3 10 11
-12 8 -10 10 10 11 l25 1 -25 8 c-14 4 -18 9 -10 9 13 1 13 2 0 11 -12 8 -10
10 10 11 20 1 18 3 -10 9 -28 6 -30 8 -10 9 20 1 22 3 10 11 -12 8 -10 10 10
11 l25 1 -25 8 c-26 8 -789 11 -827 3z m309 -214 c76 -59 78 -64 78 -145 0
-101 -4 -104 -140 -104 -136 0 -140 3 -140 103 0 40 4 77 8 84 9 14 123 103
133 103 4 0 31 -19 61 -41z"/>
<path d="M558 6432 l-47 -37 -1 -67 0 -68 100 0 100 0 0 68 -1 67 -48 38 c-27
20 -51 37 -53 37 -1 -1 -24 -18 -50 -38z m122 -137 c0 -12 -14 -15 -70 -15
-56 0 -70 3 -70 15 0 12 14 15 70 15 56 0 70 -3 70 -15z"/>
<path d="M1151 6361 c-17 -11 -11 -43 9 -48 13 -4 13 -3 0 6 -13 9 -13 11 2
11 9 0 15 7 14 15 -3 21 -10 25 -25 16z"/>
<path d="M5085 6063 c-199 -44 -307 -100 -431 -219 -100 -98 -171 -220 -211
-365 -25 -89 -25 -289 0 -378 78 -284 284 -490 568 -568 89 -25 289 -25 378 0
284 78 490 284 568 568 25 89 25 289 0 378 -89 325 -358 556 -684 588 l-63 6
0 -147 0 -146 33 0 c94 0 221 -61 304 -146 98 -100 143 -208 143 -344 0 -137
-48 -250 -146 -347 -100 -98 -208 -143 -344 -143 -136 0 -244 45 -344 143
-156 153 -191 379 -90 580 32 63 137 168 199 199 63 32 149 58 192 58 l33 0 0
145 0 145 -42 -1 c-24 -1 -52 -3 -63 -6z"/>
<path d="M6350 5905 l0 -95 60 0 c52 0 62 3 75 24 16 23 11 54 -9 68 -8 5 -7
11 2 20 35 35 -8 78 -78 78 l-50 0 0 -95z m105 40 c0 -16 -8 -21 -37 -23 -35
-3 -38 -1 -38 23 0 24 3 26 38 23 29 -2 37 -7 37 -23z m10 -80 c0 -16 -8 -21
-42 -23 -40 -3 -43 -2 -43 23 0 25 3 26 43 23 34 -2 42 -7 42 -23z"/>
<path d="M6810 5905 c0 -78 3 -95 15 -95 10 0 15 10 15 30 0 17 4 30 9 30 6 0
18 -13 28 -30 9 -16 26 -30 36 -30 16 0 14 6 -12 43 l-30 44 27 26 c36 36 7
36 -30 0 l-28 -27 0 52 c0 40 -4 52 -15 52 -12 0 -15 -17 -15 -95z"/>
<path d="M7019 5905 c-27 -71 -33 -95 -23 -95 8 0 20 11 26 25 9 20 18 25 50
25 32 0 40 -4 48 -25 5 -14 16 -25 25 -25 12 0 12 8 -6 53 -40 103 -58 137
-71 137 -7 0 -29 -42 -49 -95z m70 15 c10 -29 9 -30 -19 -30 -28 0 -29 1 -19
30 6 17 15 30 19 30 4 0 13 -13 19 -30z"/>
<path d="M8258 5975 c-33 -28 -37 -49 -8 -40 19 6 20 2 20 -59 0 -52 3 -66 15
-66 12 0 15 17 15 95 0 52 -3 95 -7 95 -5 0 -20 -12 -35 -25z"/>
<path d="M7871 5968 c-5 -13 -6 -52 -2 -88 5 -58 9 -65 29 -68 12 -2 22 1 22
7 0 6 -4 11 -10 11 -5 0 -10 20 -10 45 0 25 5 45 10 45 6 0 10 7 10 15 0 8 -4
15 -10 15 -5 0 -10 9 -10 20 0 27 -18 25 -29 -2z"/>
<path d="M6537 5932 c-10 -10 -17 -22 -17 -25 0 -12 21 -7 36 8 18 17 24 18
43 6 18 -11 5 -31 -20 -31 -34 0 -59 -19 -59 -46 0 -30 25 -41 80 -36 l40 4 0
59 c0 47 -4 60 -19 69 -30 15 -66 12 -84 -8z m71 -79 c-4 -23 -58 -31 -58 -9
0 15 14 24 43 25 12 1 17 -5 15 -16z"/>
<path d="M6670 5878 c0 -39 4 -68 10 -68 6 0 10 18 10 39 0 55 8 71 36 71 22
0 24 -4 24 -55 0 -42 3 -55 15 -55 12 0 15 13 15 59 0 69 -10 81 -68 78 l-42
-1 0 -68z"/>
<path d="M7191 5931 c-44 -44 -17 -121 42 -121 25 0 57 23 57 41 0 15 -27 10
-34 -7 -3 -9 -15 -14 -28 -12 -18 2 -24 11 -26 36 -3 32 11 62 29 62 4 0 15
-7 24 -16 20 -20 33 -10 19 14 -16 25 -59 27 -83 3z"/>
<path d="M7321 5931 c-44 -44 -17 -121 42 -121 25 0 57 23 57 41 0 15 -27 10
-34 -7 -3 -9 -15 -14 -28 -12 -18 2 -24 11 -26 36 -3 32 11 62 29 62 4 0 15
-7 24 -16 20 -20 33 -10 19 14 -16 25 -59 27 -83 3z"/>
<path d="M7453 5935 c-17 -12 -23 -26 -23 -53 0 -46 8 -58 44 -72 38 -14 72 7
81 51 14 62 -52 110 -102 74z m61 -21 c9 -8 16 -25 16 -38 0 -47 -53 -63 -72
-21 -9 19 -8 29 6 50 19 29 29 31 50 9z"/>
<path d="M7580 5893 c0 -76 6 -84 63 -82 l47 2 0 69 c0 39 -4 68 -10 68 -5 0
-10 -19 -10 -43 0 -50 -19 -83 -44 -74 -12 5 -16 20 -16 62 0 42 -3 55 -15 55
-12 0 -15 -13 -15 -57z"/>
<path d="M7730 5879 c0 -81 18 -94 22 -16 3 48 5 52 31 55 27 3 27 2 27 -52 0
-43 3 -56 15 -56 11 0 15 12 15 53 0 69 -10 81 -65 83 l-45 2 0 -69z"/>
<path d="M7952 5938 c-25 -25 -14 -54 29 -71 23 -9 38 -21 34 -27 -10 -16 -43
-12 -54 8 -7 12 -13 14 -20 6 -15 -14 7 -42 34 -44 40 -4 54 0 65 19 15 29 2
50 -41 62 -21 7 -39 15 -39 20 0 14 31 18 50 7 24 -15 37 -4 20 17 -15 18 -61
20 -78 3z"/>
<path d="M8080 5935 c0 -8 7 -15 15 -15 8 0 15 7 15 15 0 8 -7 15 -15 15 -8 0
-15 -7 -15 -15z"/>
<path d="M8080 5825 c0 -8 7 -15 15 -15 8 0 15 7 15 15 0 8 -7 15 -15 15 -8 0
-15 -7 -15 -15z"/>
<path d="M551 5623 c-126 -66 -94 -242 46 -259 48 -6 100 20 130 65 74 111
-58 256 -176 194z m129 -22 c36 -25 63 -84 55 -121 -21 -98 -140 -136 -211
-69 -110 104 31 275 156 190z"/>
<path d="M587 5568 c-32 -23 -35 -54 -7 -63 15 -5 20 -15 20 -38 l-1 -32 -19
24 c-15 17 -20 19 -20 7 0 -8 11 -23 25 -32 23 -15 27 -15 50 0 30 20 33 52 5
61 -15 5 -20 15 -20 38 l1 32 19 -24 c13 -15 20 -18 20 -9 0 8 -11 24 -23 35
-24 20 -24 20 -50 1z m13 -33 c0 -18 -4 -23 -15 -19 -25 10 -19 33 13 43 1 1
2 -10 2 -24z m50 -70 c0 -7 -7 -15 -15 -19 -11 -4 -15 1 -15 19 0 18 4 23 15
19 8 -4 15 -12 15 -19z"/>
<path d="M950 5506 c0 -51 4 -86 10 -86 6 0 10 23 10 51 0 60 12 57 30 -6 17
-60 38 -56 61 10 l17 50 1 -52 c1 -40 5 -53 16 -53 12 0 15 16 15 86 0 74 -2
85 -17 82 -10 -2 -24 -25 -36 -60 -10 -32 -22 -58 -27 -58 -5 0 -17 26 -27 58
-12 35 -26 58 -36 60 -15 3 -17 -8 -17 -82z"/>
<path d="M1320 5506 l0 -86 49 0 c32 0 55 6 65 16 18 17 21 50 6 59 -5 3 -7
18 -4 33 7 40 -8 54 -65 60 l-51 5 0 -87z m95 34 c0 -10 -12 -16 -32 -18 -28
-3 -33 0 -33 18 0 18 5 21 33 18 20 -2 32 -8 32 -18z m3 -72 c-2 -18 -11 -24
-35 -26 -30 -3 -33 -1 -33 22 0 23 4 26 36 26 31 0 35 -3 32 -22z"/>
<path d="M1730 5505 c0 -50 4 -85 10 -85 6 0 10 11 10 25 0 14 4 25 10 25 5 0
17 -11 26 -25 9 -14 23 -25 31 -25 10 0 7 10 -11 37 l-26 37 22 23 c17 18 18
23 6 23 -9 0 -21 -7 -28 -15 -21 -25 -30 -17 -30 25 0 22 -4 40 -10 40 -6 0
-10 -35 -10 -85z"/>
<path d="M1133 5528 c40 -106 42 -119 25 -132 -22 -16 -23 -26 -3 -26 17 0 28
19 61 106 19 50 21 64 10 64 -8 0 -17 -13 -21 -30 -10 -44 -22 -45 -39 -5 -8
19 -20 35 -27 35 -6 0 -9 -6 -6 -12z"/>
<path d="M1474 5525 c-9 -23 1 -28 24 -14 21 13 57 5 47 -11 -3 -5 -17 -10
-30 -10 -34 0 -58 -26 -45 -51 8 -14 21 -18 58 -18 l47 2 -5 56 -5 56 -43 3
c-31 2 -44 -1 -48 -13z m70 -70 c-6 -16 -54 -21 -54 -7 0 15 12 22 36 22 17 0
22 -4 18 -15z"/>
<path d="M1600 5481 c0 -34 4 -61 10 -61 6 0 10 15 10 33 0 41 21 73 44 64 11
-5 16 -19 16 -52 0 -25 5 -45 10 -45 7 0 10 22 8 58 l-3 57 -47 3 -48 3 0 -60z"/>
<path d="M1847 5534 c-18 -18 -5 -46 28 -60 41 -17 46 -34 10 -34 -14 0 -25 5
-25 10 0 6 -4 10 -10 10 -21 0 -9 -31 16 -41 20 -7 32 -6 50 6 40 26 27 56
-29 70 -41 11 -34 29 9 22 25 -4 34 -2 31 6 -4 13 -69 22 -80 11z"/>
<path d="M16180 5261 c0 -147 2 -171 15 -171 13 0 15 23 13 167 -2 122 -6 167
-15 171 -10 3 -13 -35 -13 -167z"/>
<path d="M14730 5295 c0 -102 3 -125 14 -125 11 0 16 14 18 48 l3 47 56 5 c70
6 99 29 99 77 0 56 -27 73 -115 73 l-75 0 0 -125z m148 53 c4 -33 -24 -50 -76
-46 -35 3 -37 5 -40 41 l-3 38 58 -3 c55 -3 58 -5 61 -30z"/>
<path d="M14950 5295 c0 -118 1 -125 20 -125 19 0 20 7 20 125 0 118 -1 125
-20 125 -19 0 -20 -7 -20 -125z"/>
<path d="M16360 5295 l0 -125 80 0 c63 0 80 3 80 15 0 10 -16 15 -62 17 l-63
3 -3 108 c-2 86 -6 107 -17 107 -12 0 -15 -22 -15 -125z"/>
<path d="M16510 5400 c0 -17 7 -20 40 -20 l40 0 0 -105 c0 -98 1 -105 20 -105
19 0 20 7 20 104 l0 105 37 3 c27 2 39 8 41 21 3 15 -7 17 -97 17 -94 0 -101
-1 -101 -20z"/>
<path d="M16740 5295 l0 -125 71 0 c64 0 73 3 99 28 52 53 49 158 -7 202 -20
16 -41 20 -94 20 l-69 0 0 -125z m144 69 c22 -21 29 -57 22 -98 -9 -45 -29
-60 -84 -60 l-47 -1 -3 88 -3 87 50 0 c32 0 55 -6 65 -16z"/>
<path d="M17129 5405 c-62 -33 -70 -163 -13 -216 18 -17 36 -23 75 -23 45 -1
54 3 80 32 17 19 28 39 26 45 -7 22 -33 18 -45 -7 -24 -53 -105 -46 -128 10
-40 97 54 190 120 119 13 -14 28 -25 35 -25 19 0 12 30 -14 55 -28 29 -93 34
-136 10z"/>
<path d="M17330 5400 c0 -13 7 -20 20 -20 13 0 20 7 20 20 0 13 -7 20 -20 20
-13 0 -20 -7 -20 -20z"/>
<path d="M6363 5363 c26 -4 27 -6 29 -76 l2 -72 5 70 c6 63 8 70 31 76 16 5 4
7 -35 7 -33 -1 -48 -3 -32 -5z"/>
<path d="M6859 5351 c-47 -38 -18 -131 41 -131 20 0 50 25 50 41 0 5 -9 0 -20
-11 -23 -23 -33 -24 -61 -10 -14 8 -19 21 -19 55 0 34 5 47 19 55 28 15 38 13
61 -12 11 -12 20 -17 20 -11 0 15 -34 43 -52 43 -9 0 -26 -8 -39 -19z"/>
<path d="M7570 5295 l0 -75 33 0 c50 0 72 20 62 56 -5 16 -7 37 -6 47 4 28
-18 47 -55 47 l-34 0 0 -75z m69 56 c23 -15 5 -41 -29 -41 -25 0 -30 4 -30 25
0 19 5 25 23 25 12 0 28 -4 36 -9z m2 -61 c37 -21 11 -60 -40 -60 -17 0 -21 6
-21 35 0 29 4 35 21 35 11 0 29 -5 40 -10z"/>
<path d="M6569 5345 c-8 -39 6 -118 21 -123 12 -4 13 -2 3 9 -7 7 -13 30 -13
51 0 24 5 38 13 38 8 0 9 3 1 8 -6 4 -13 14 -16 22 -4 11 -6 10 -9 -5z"/>
<path d="M7459 5345 c-7 -35 6 -118 19 -121 7 -1 8 0 2 3 -15 7 -13 93 3 93 8
0 9 3 1 8 -6 4 -13 14 -16 22 -4 11 -6 10 -9 -5z"/>
<path d="M15282 5351 c-7 -4 -24 -6 -38 -3 l-24 4 0 -91 c0 -84 2 -91 20 -91
17 0 19 8 22 66 3 70 18 94 52 81 13 -5 16 -21 16 -77 0 -63 2 -70 20 -70 17
0 19 8 22 73 3 67 5 72 27 75 32 5 41 -12 41 -85 0 -49 3 -63 15 -63 12 0 15
16 15 80 0 74 -2 81 -25 96 -20 13 -31 14 -56 5 -21 -7 -37 -7 -49 -1 -23 12
-41 12 -58 1z"/>
<path d="M15552 5350 c-51 -21 -65 -126 -21 -166 40 -36 139 -13 139 33 0 18
-36 17 -44 -2 -7 -18 -57 -20 -74 -3 -28 28 -13 38 53 38 64 0 65 0 65 28 -1
31 -16 54 -47 70 -25 14 -39 14 -71 2z m76 -52 c3 -15 -4 -18 -43 -18 -43 0
-45 1 -35 21 14 26 73 24 78 -3z"/>
<path d="M15742 5350 c-35 -15 -57 -75 -43 -121 14 -48 35 -64 81 -64 72 0
110 71 76 141 -22 47 -65 63 -114 44z m78 -49 c14 -26 13 -74 -2 -89 -19 -19
-66 -15 -78 7 -25 48 -4 101 40 101 19 0 33 -7 40 -19z"/>
<path d="M17430 5332 c-73 -73 -10 -193 85 -162 38 13 67 60 36 60 -10 0 -24
-7 -31 -15 -23 -28 -80 -13 -80 22 0 9 19 13 66 13 l67 0 -7 32 c-8 42 -32 66
-73 74 -27 5 -37 1 -63 -24z m88 -24 c21 -21 13 -28 -33 -28 -25 0 -45 4 -45
8 0 15 24 32 45 32 12 0 26 -5 33 -12z"/>
<path d="M15030 5277 c0 -45 5 -80 13 -91 13 -18 22 -19 105 -16 l32 1 0 90
c0 82 -2 89 -20 89 -17 0 -19 -8 -22 -72 l-3 -73 -32 -3 -33 -3 0 75 c0 69 -2
76 -20 76 -18 0 -20 -7 -20 -73z"/>
<path d="M15911 5306 l31 -43 -32 -44 c-27 -38 -29 -44 -14 -48 11 -2 28 10
44 29 l27 33 19 -31 c12 -22 26 -32 42 -32 l23 0 -31 44 c-16 25 -30 48 -30
52 0 4 11 22 25 40 30 39 31 44 8 44 -10 0 -27 -12 -39 -27 l-21 -27 -18 27
c-11 17 -26 27 -41 27 l-24 0 31 -44z"/>
<path d="M17330 5260 c0 -83 1 -90 20 -90 19 0 20 7 20 90 0 83 -1 90 -20 90
-19 0 -20 -7 -20 -90z"/>
<path d="M6468 5319 c-25 -14 -24 -75 1 -89 27 -14 37 -13 55 6 29 29 10 95
-27 94 -7 0 -20 -5 -29 -11z m53 -23 c20 -43 -18 -85 -49 -54 -25 25 -8 78 25
78 7 0 18 -11 24 -24z"/>
<path d="M6633 5323 c-7 -2 -13 -9 -13 -14 0 -5 8 -4 19 2 20 13 51 6 51 -10
0 -6 -15 -14 -32 -19 -26 -6 -33 -14 -33 -32 0 -17 6 -26 20 -28 l20 -4 -20
15 c-22 17 -15 30 23 42 24 7 31 -12 11 -32 -7 -7 -6 -12 5 -16 13 -5 16 2 16
36 0 58 -23 78 -67 60z"/>
<path d="M6982 5289 c-2 -53 10 -68 50 -66 27 2 28 4 26 57 -1 49 -2 50 -5 13
-8 -80 -59 -85 -66 -6 l-3 48 -2 -46z"/>
<path d="M7113 5323 c-7 -2 -13 -14 -12 -26 0 -15 2 -17 6 -7 3 8 12 21 21 28
16 12 8 15 -15 5z"/>
<path d="M7162 5270 c1 -50 2 -51 5 -13 3 28 11 47 24 57 20 14 20 14 -5 12
-25 -1 -26 -3 -24 -56z"/>
<path d="M7240 5315 c-39 -47 16 -125 58 -83 20 20 14 33 -7 14 -20 -18 -51
-12 -51 10 0 9 12 14 35 14 27 0 35 4 35 18 0 38 -46 56 -70 27z m44 -1 c28
-11 18 -34 -14 -34 -30 0 -43 23 -17 33 6 3 13 6 14 6 1 1 8 -2 17 -5z"/>
<path d="M7342 5270 c1 -49 2 -50 5 -13 8 81 62 86 65 6 l1 -48 4 43 c5 52 -9
72 -48 69 -28 -2 -29 -3 -27 -57z"/>
<path d="M7713 5323 c-7 -2 -13 -9 -13 -14 0 -5 8 -4 19 2 20 13 51 6 51 -10
0 -6 -15 -14 -32 -19 -26 -6 -33 -14 -33 -32 0 -17 6 -26 20 -28 l20 -4 -20
15 c-22 17 -15 30 23 42 24 7 31 -12 11 -32 -7 -7 -6 -12 5 -16 13 -5 16 2 16
36 0 58 -23 78 -67 60z"/>
<path d="M7873 5323 c-7 -2 -13 -9 -13 -14 0 -5 9 -4 20 3 16 11 23 10 37 -5
16 -16 15 -17 -15 -23 -41 -8 -59 -29 -42 -49 7 -8 20 -15 29 -15 14 1 14 2
-1 11 -26 15 -22 36 7 41 31 6 37 0 25 -22 -7 -13 -6 -20 5 -24 12 -4 15 4 15
37 0 58 -23 78 -67 60z"/>
<path d="M7972 5270 c1 -49 2 -50 5 -13 8 81 62 86 65 6 l1 -48 4 43 c5 52 -9
72 -48 69 -28 -2 -29 -3 -27 -57z"/>
<path d="M8096 5314 c-30 -29 -10 -94 28 -94 14 0 36 20 36 34 0 5 -6 1 -14
-10 -20 -26 -51 -7 -51 31 0 38 31 57 51 31 8 -11 14 -15 14 -10 0 14 -22 34
-36 34 -7 0 -20 -7 -28 -16z"/>
<path d="M8196 5314 c-9 -8 -16 -26 -16 -39 0 -23 23 -55 40 -55 21 0 40 13
40 28 0 13 -3 12 -14 -4 -12 -15 -19 -17 -32 -8 -34 20 -28 34 15 34 45 0 53
16 23 43 -23 21 -36 21 -56 1z m52 -17 c3 -13 -3 -17 -27 -17 -33 0 -39 8 -19
28 17 17 42 11 46 -11z"/>
<path d="M14761 4988 c-4 -13 -18 -49 -30 -82 -12 -32 -19 -61 -17 -64 3 -2
10 7 15 22 9 22 16 26 51 26 34 0 41 -4 46 -25 3 -14 11 -25 16 -25 11 0 11 0
-29 103 -28 71 -38 81 -52 45z m37 -45 c11 -32 10 -33 -20 -33 -23 0 -29 3
-24 16 3 9 9 27 12 41 8 28 17 21 32 -24z"/>
<path d="M14950 4978 c0 -25 -3 -29 -12 -20 -28 28 -68 -2 -68 -51 0 -46 14
-61 54 -62 l36 -2 0 84 c0 46 -2 83 -5 83 -3 0 -5 -14 -5 -32z m0 -73 c0 -43
-30 -64 -54 -39 -35 34 -5 105 35 84 13 -7 19 -21 19 -45z"/>
<path d="M15435 4998 c-29 -16 -55 -50 -54 -73 0 -14 4 -10 14 13 16 37 68 64
106 55 31 -8 59 -32 59 -51 0 -9 3 -13 6 -9 12 12 -9 48 -36 62 -34 18 -67 19
-95 3z"/>
<path d="M15744 4925 c0 -49 1 -71 3 -48 2 23 2 64 0 90 -2 26 -3 8 -3 -42z"/>
<path d="M6440 4970 c0 -5 -8 -10 -18 -10 -20 0 -55 -34 -66 -64 -12 -34 12
-81 49 -99 33 -16 35 -19 35 -67 0 -58 -20 -68 -40 -19 -8 19 -18 28 -27 25
-8 -4 -17 -6 -19 -6 -2 0 -4 -9 -4 -21 0 -24 51 -79 74 -79 9 0 16 -8 16 -20
0 -11 7 -20 15 -20 8 0 15 9 15 20 0 11 6 20 14 20 26 0 65 41 72 76 9 47 -8
80 -51 101 -33 16 -35 19 -35 67 l1 51 22 -26 c22 -26 57 -29 57 -5 0 22 -40
66 -61 66 -10 0 -19 5 -19 10 0 6 -7 10 -15 10 -8 0 -15 -4 -15 -10z m0 -91
c0 -33 -3 -40 -17 -37 -22 4 -29 44 -13 64 21 24 30 16 30 -27z m58 -121 c22
-22 8 -78 -20 -78 -4 0 -8 20 -8 45 0 46 7 54 28 33z"/>
<path d="M15000 4903 c0 -36 4 -63 10 -63 6 0 10 22 10 49 0 32 5 53 15 61 23
20 38 -1 46 -63 l6 -52 2 51 c0 33 7 56 16 64 23 20 38 -1 46 -63 l6 -52 2 56
c1 66 -17 92 -50 71 -11 -7 -25 -9 -32 -5 -7 4 -27 8 -44 8 l-33 0 0 -62z"/>
<path d="M15203 4905 c0 -38 2 -53 4 -32 2 20 2 52 0 70 -2 17 -4 1 -4 -38z"/>
<path d="M15252 4900 c1 -59 2 -61 5 -15 4 52 23 78 49 68 10 -3 14 -22 14
-59 0 -30 5 -54 10 -54 13 0 13 86 0 111 -8 14 -20 18 -45 16 l-35 -2 2 -65z"/>
<path d="M15612 4875 c0 -49 3 -75 5 -57 4 31 7 33 33 27 22 -5 31 -1 44 17
35 49 10 103 -48 103 l-36 0 2 -90z m68 70 c29 -35 3 -103 -33 -89 -25 9 -32
50 -13 79 19 29 29 31 46 10z"/>
<path d="M15791 4919 c-1 -67 15 -89 54 -71 18 8 25 8 29 -1 2 -7 4 20 4 58
l-1 70 -6 -53 c-6 -47 -20 -71 -43 -72 -13 0 -23 25 -29 75 l-6 50 -2 -56z"/>
<path d="M15921 4900 l2 -65 6 53 c11 92 60 95 62 3 l2 -56 6 53 c11 92 58 94
64 4 l3 -57 2 62 c2 54 0 62 -18 68 -12 4 -27 2 -35 -5 -9 -7 -15 -8 -20 -1
-3 6 -22 10 -41 8 l-34 -2 1 -65z"/>
<path d="M16125 4954 c-11 -11 -15 -30 -13 -58 3 -34 7 -42 30 -50 22 -8 32
-6 48 9 11 10 18 20 16 23 -3 2 -12 -3 -21 -12 -20 -20 -29 -20 -49 0 -26 25
-19 34 29 34 51 0 59 16 25 50 -24 24 -43 25 -65 4z m53 -6 c23 -23 13 -38
-23 -38 -39 0 -48 21 -17 39 22 13 26 13 40 -1z"/>
<path d="M16250 4950 c-11 -11 -20 -31 -20 -45 0 -27 31 -65 53 -65 47 0 71
88 32 116 -26 19 -41 18 -65 -6z m51 0 c28 -15 26 -75 -3 -91 -18 -10 -24 -8
-40 11 -22 27 -22 39 -2 68 17 25 19 26 45 12z"/>
<path d="M16378 4939 c20 -32 20 -32 0 -65 -11 -19 -16 -34 -11 -34 6 0 15 12
22 28 l13 27 22 -27 c30 -38 43 -35 15 3 -19 27 -20 33 -8 57 22 44 22 48 -2
22 l-21 -25 -15 23 c-24 34 -38 26 -15 -9z"/>
<path d="M16560 4950 c-11 -11 -20 -31 -20 -45 0 -27 31 -65 53 -65 15 0 47
31 47 45 0 5 -9 -1 -20 -13 -24 -25 -31 -27 -48 -10 -24 24 -9 98 19 98 4 0
15 -7 24 -16 9 -9 18 -14 21 -11 8 7 -26 37 -42 37 -8 0 -23 -9 -34 -20z"/>
<path d="M16676 4954 c-9 -8 -16 -31 -16 -49 0 -58 49 -85 83 -47 49 54 -17
147 -67 96z m56 -11 c10 -9 18 -25 18 -36 0 -20 -26 -57 -41 -57 -16 0 -39 32
-39 55 0 21 23 55 37 55 4 0 15 -7 25 -17z"/>
<path d="M16791 4900 l1 -65 8 54 c8 51 23 74 45 68 6 -2 11 -29 13 -60 4 -72
22 -75 22 -3 0 40 4 55 16 60 27 10 34 -3 34 -60 0 -30 5 -54 10 -54 15 0 12
93 -4 115 -12 16 -18 17 -39 8 -14 -7 -28 -9 -32 -5 -4 4 -22 7 -41 7 l-34 0
1 -65z"/>
<path d="M6689 4926 c-19 -18 -43 -37 -53 -43 -11 -6 -16 -18 -14 -31 3 -21 4
-21 32 -7 15 8 32 15 37 15 5 0 9 -52 9 -115 0 -108 1 -115 20 -115 19 0 20 7
20 165 0 91 -3 165 -7 165 -5 0 -24 -16 -44 -34z"/>
<path d="M6910 4941 c-5 -11 -26 -29 -45 -41 -25 -15 -35 -29 -35 -47 l0 -25
35 20 34 21 3 -117 c3 -113 4 -117 26 -120 l22 -3 0 165 c0 139 -2 166 -15
166 -8 0 -19 -9 -25 -19z"/>
<path d="M15440 4940 c-38 -38 -14 -120 28 -93 12 7 22 7 34 -1 13 -8 23 -5
43 14 14 13 25 31 25 39 -1 10 -7 5 -16 -11 -8 -16 -22 -28 -30 -28 -13 0 -15
9 -9 53 3 28 2 47 -2 40 -6 -8 -14 -9 -23 -3 -21 14 -28 12 -50 -10z m60 -31
c0 -34 -36 -65 -57 -47 -19 15 -16 45 7 68 26 26 50 16 50 -21z"/>
<path d="M7076 4920 c-43 -52 -47 -176 -8 -244 12 -22 30 -34 56 -41 48 -12
84 7 108 55 35 69 15 225 -33 250 -10 6 -36 10 -57 10 -32 0 -45 -6 -66 -30z
m106 -27 c28 -25 26 -175 -2 -203 -11 -11 -26 -20 -34 -20 -20 0 -45 27 -52
56 -10 38 0 150 15 168 17 21 50 20 73 -1z"/>
<path d="M7436 4920 c-43 -52 -47 -176 -8 -244 12 -22 30 -34 56 -41 48 -12
84 7 108 55 35 69 15 225 -33 250 -10 6 -36 10 -57 10 -32 0 -45 -6 -66 -30z
m106 -27 c28 -25 26 -175 -2 -203 -11 -11 -26 -20 -34 -20 -20 0 -45 27 -52
56 -10 38 0 150 15 168 17 21 50 20 73 -1z"/>
<path d="M7688 4933 c-31 -36 -41 -69 -41 -138 0 -110 36 -165 108 -165 14 0
39 13 57 29 l33 29 0 100 c0 87 -3 104 -21 129 -17 23 -30 29 -71 31 -37 2
-53 -1 -65 -15z m110 -68 c9 -26 12 -61 8 -99 -9 -88 -50 -122 -92 -75 -15 17
-19 37 -19 104 0 95 12 118 59 113 26 -3 33 -9 44 -43z"/>
<path d="M15380 4864 c-1 -59 106 -93 169 -54 18 12 31 24 27 27 -3 3 -14 -1
-23 -9 -47 -41 -136 -26 -158 25 -11 25 -14 27 -15 11z"/>
<path d="M492 4764 c-21 -14 -22 -22 -22 -139 0 -68 4 -126 10 -130 5 -3 18 0
28 6 15 10 24 9 43 -4 21 -15 24 -15 41 0 16 14 23 15 39 5 31 -20 39 -6 39
69 0 66 1 69 24 69 34 0 56 26 56 66 0 61 -25 74 -138 74 -72 0 -103 -4 -120
-16z m166 -124 c2 -108 0 -130 -12 -130 -8 0 -18 5 -21 11 -5 7 -15 5 -31 -6
-22 -14 -26 -14 -48 0 -16 11 -26 13 -31 6 -3 -6 -13 -11 -21 -11 -11 0 -14
21 -14 110 0 140 7 150 108 150 l67 0 3 -130z m73 96 c7 -14 9 -36 5 -50 -5
-21 -13 -26 -36 -26 -29 0 -30 2 -30 43 0 24 3 47 7 50 14 15 44 6 54 -17z"/>
<path d="M573 4673 c9 -2 25 -2 35 0 9 3 1 5 -18 5 -19 0 -27 -2 -17 -5z"/>
<path d="M520 4620 c0 -5 5 -10 10 -10 6 0 10 5 10 10 0 6 -4 10 -10 10 -5 0
-10 -4 -10 -10z"/>
<path d="M570 4620 c0 -5 9 -10 20 -10 11 0 20 5 20 10 0 6 -9 10 -20 10 -11
0 -20 -4 -20 -10z"/>
<path d="M940 4715 c0 -9 9 -15 25 -15 24 0 25 -2 25 -70 0 -56 3 -70 15 -70
12 0 15 14 15 70 0 68 1 70 25 70 16 0 25 6 25 15 0 12 -14 15 -65 15 -51 0
-65 -3 -65 -15z"/>
<path d="M1840 4715 c0 -8 5 -15 10 -15 6 0 10 7 10 15 0 8 -4 15 -10 15 -5 0
-10 -7 -10 -15z"/>
<path d="M2210 4645 c0 -69 3 -85 15 -85 11 0 15 11 15 40 l0 40 40 0 40 0 0
-40 c0 -22 5 -40 10 -40 6 0 10 35 10 85 0 50 -4 85 -10 85 -5 0 -10 -16 -10
-35 0 -34 -1 -35 -40 -35 -39 0 -40 1 -40 35 0 24 -5 35 -15 35 -12 0 -15 -16
-15 -85z"/>
<path d="M2380 4715 c0 -8 5 -15 10 -15 6 0 10 7 10 15 0 8 -4 15 -10 15 -5 0
-10 -7 -10 -15z"/>
<path d="M1771 4697 c-5 -13 -5 -46 1 -80 8 -46 14 -57 29 -57 10 0 19 5 19
10 0 6 -4 10 -10 10 -15 0 -12 77 3 84 10 5 10 7 0 12 -7 3 -13 14 -13 25 0
26 -19 24 -29 -4z"/>
<path d="M2542 4692 c-8 -17 -9 -28 -2 -30 5 -2 10 -26 10 -53 0 -42 3 -49 20
-49 11 0 20 5 20 10 0 6 -4 10 -10 10 -15 0 -12 77 3 84 10 5 10 7 0 12 -7 3
-13 14 -13 25 0 27 -13 23 -28 -9z"/>
<path d="M7300 4667 c0 -13 5 -28 12 -35 8 -8 8 -15 -2 -27 -16 -20 -4 -33 18
-19 11 7 18 27 20 58 3 43 2 46 -22 46 -20 0 -26 -5 -26 -23z"/>
<path d="M1080 4620 c0 -33 4 -60 10 -60 6 0 10 15 10 34 0 44 9 66 25 66 8 0
17 5 20 10 4 6 -8 10 -29 10 l-36 0 0 -60z"/>
<path d="M1160 4665 c-16 -19 -5 -34 12 -17 7 7 23 12 36 12 33 0 23 -24 -13
-30 -32 -6 -51 -30 -42 -53 5 -13 19 -16 55 -16 l49 2 -4 46 c-3 25 -6 52 -8
59 -6 17 -70 15 -85 -3z m68 -67 c-5 -15 -58 -24 -58 -10 0 15 12 22 38 22 14
0 22 -5 20 -12z"/>
<path d="M1280 4621 c0 -47 3 -61 14 -61 11 0 16 14 18 48 3 40 6 47 26 50 20
3 22 0 22 -47 0 -29 5 -51 10 -51 7 0 10 22 8 58 l-3 57 -47 3 -48 3 0 -60z"/>
<path d="M1413 4664 c-8 -22 9 -47 37 -54 33 -8 38 -30 7 -30 -14 0 -27 5 -29
12 -2 6 -10 9 -18 6 -10 -3 -9 -9 8 -26 27 -27 46 -28 72 -2 26 26 13 56 -30
65 -44 10 -38 29 6 20 28 -5 35 -3 32 7 -7 21 -77 23 -85 2z"/>
<path d="M1533 4665 c-3 -9 -2 -19 2 -23 4 -4 10 -1 12 6 3 6 16 12 30 12 33
0 25 -24 -10 -28 -33 -4 -50 -25 -42 -52 5 -17 14 -20 56 -19 l49 2 0 43 c0
64 -7 74 -51 74 -27 0 -42 -5 -46 -15z m65 -67 c-5 -15 -48 -24 -48 -10 0 14
12 22 33 22 10 0 17 -5 15 -12z"/>
<path d="M1660 4661 c-26 -49 -2 -103 45 -103 31 0 66 33 43 41 -6 2 -14 -1
-16 -7 -2 -7 -14 -12 -27 -12 -26 0 -39 33 -24 62 10 19 49 25 49 8 0 -5 7
-10 15 -10 13 0 14 4 5 20 -15 27 -75 28 -90 1z"/>
<path d="M1840 4620 c0 -33 4 -60 10 -60 6 0 10 27 10 60 0 33 -4 60 -10 60
-6 0 -10 -27 -10 -60z"/>
<path d="M1890 4661 c-14 -27 -13 -64 3 -85 16 -21 60 -24 82 -6 18 15 20 81
3 98 -20 20 -76 15 -88 -7z m75 -41 c0 -30 -3 -35 -27 -38 -30 -4 -44 23 -33
59 5 15 14 19 33 17 24 -3 27 -8 27 -38z"/>
<path d="M2020 4620 c0 -71 18 -81 22 -12 3 40 6 47 26 50 20 3 22 0 22 -47 0
-39 4 -51 15 -51 11 0 15 12 15 48 0 58 -12 72 -62 72 l-38 0 0 -60z"/>
<path d="M2380 4620 c0 -33 4 -60 10 -60 6 0 10 27 10 60 0 33 -4 60 -10 60
-6 0 -10 -27 -10 -60z"/>
<path d="M2426 4665 c-11 -29 -7 -36 37 -54 35 -16 39 -20 23 -26 -11 -5 -27
-3 -38 4 -23 14 -31 10 -23 -12 9 -23 46 -28 73 -11 31 20 25 46 -16 63 -41
18 -42 35 -1 27 22 -4 29 -2 27 7 -7 19 -74 21 -82 2z"/>
<path d="M2610 4661 c-14 -27 -13 -64 3 -85 16 -21 60 -24 82 -6 18 15 20 81
3 98 -20 20 -76 15 -88 -7z m75 -41 c0 -30 -3 -35 -27 -38 -30 -4 -44 23 -33
59 5 15 14 19 33 17 24 -3 27 -8 27 -38z"/>
<path d="M2740 4620 c0 -70 18 -81 22 -14 2 37 7 48 24 55 19 7 24 1 43 -49
21 -57 21 -57 1 -74 -25 -21 -25 -28 0 -28 11 0 20 1 20 3 0 1 14 35 30 76 32
79 35 91 21 91 -5 0 -15 -16 -22 -35 -7 -19 -16 -35 -20 -35 -4 0 -13 16 -19
35 -11 33 -14 35 -56 35 l-44 0 0 -60z"/>
<path d="M551 3892 c-126 -64 -94 -241 46 -258 70 -9 154 60 152 125 0 22 -2
20 -15 -14 -19 -51 -49 -83 -91 -94 -93 -26 -182 65 -153 154 12 37 61 85 88
85 9 0 24 5 32 10 28 18 -22 12 -59 -8z"/>
<path d="M698 3903 c28 -6 28 -10 -5 -47 l-28 -31 31 28 c37 33 41 33 47 5 3
-14 5 -9 6 15 1 37 1 37 -36 36 -24 -1 -29 -3 -15 -6z"/>
<path d="M940 3845 c0 -9 9 -15 25 -15 24 0 25 -2 25 -70 0 -56 3 -70 15 -70
12 0 15 14 15 70 0 68 1 70 25 70 16 0 25 6 25 15 0 12 -14 15 -65 15 -51 0
-65 -3 -65 -15z"/>
<path d="M1541 3847 c-13 -16 -15 -33 -13 -104 2 -40 6 -53 17 -53 11 0 15 12
15 49 0 30 5 51 13 54 9 4 8 8 -3 16 -13 10 -13 13 3 25 9 7 17 16 17 20 0 11
-37 6 -49 -7z"/>
<path d="M1860 3775 c0 -69 3 -85 15 -85 10 0 15 11 15 35 0 34 1 35 40 35 29
0 40 4 40 15 0 11 -11 15 -40 15 -33 0 -40 3 -40 19 0 16 8 20 42 23 23 2 43
9 46 16 3 9 -13 12 -57 12 l-61 0 0 -85z"/>
<path d="M2340 3836 c0 -21 -6 -25 -32 -28 -44 -4 -66 -45 -46 -85 11 -23 21
-29 56 -31 l42 -3 0 85 c0 51 -4 86 -10 86 -5 0 -10 -11 -10 -24z m-5 -86 c0
-31 -3 -35 -25 -35 -19 0 -26 6 -28 23 -5 36 5 54 30 50 19 -2 23 -9 23 -38z"/>
<path d="M14720 3755 c0 -76 3 -95 15 -95 10 0 15 16 17 63 l3 62 21 -60 c28
-81 45 -81 71 -3 l21 63 1 -62 c1 -49 4 -63 16 -63 12 0 15 17 15 95 0 85 -2
95 -18 95 -14 0 -24 -18 -41 -70 -12 -38 -26 -70 -30 -70 -4 0 -17 32 -30 70
-17 55 -26 70 -42 70 -17 0 -19 -8 -19 -95z"/>
<path d="M15140 3756 l0 -96 54 0 c36 0 60 5 70 16 18 17 21 59 7 69 -5 3 -8
20 -5 38 7 47 -7 60 -70 65 l-56 4 0 -96z m98 42 c-2 -18 -11 -24 -35 -26 -30
-3 -33 -1 -33 22 0 23 4 26 36 26 31 0 35 -3 32 -22z m10 -85 c3 -21 -1 -23
-37 -23 -37 0 -41 2 -41 26 0 23 3 25 38 22 30 -2 38 -7 40 -25z"/>
<path d="M15600 3755 c0 -57 4 -95 10 -95 6 0 10 11 10 24 0 26 21 47 28 28 7
-23 39 -55 50 -51 8 3 3 17 -14 42 l-26 39 28 29 c26 27 26 29 7 29 -11 0 -28
-9 -38 -20 -27 -30 -35 -25 -35 25 0 25 -4 45 -10 45 -6 0 -10 -38 -10 -95z"/>
<path d="M592 3822 c-25 -17 -29 -40 -7 -48 8 -4 15 -15 15 -26 0 -17 -3 -18
-15 -8 -10 8 -15 9 -15 2 0 -20 38 -34 60 -22 24 13 26 38 5 46 -8 4 -15 15
-15 26 0 17 3 18 15 8 8 -7 15 -8 15 -3 0 5 -8 16 -18 24 -16 14 -21 14 -40 1z
m8 -28 c0 -8 -5 -12 -10 -9 -6 4 -8 11 -5 16 9 14 15 11 15 -7z m35 -43 c3 -5
1 -12 -5 -16 -5 -3 -10 1 -10 9 0 18 6 21 15 7z"/>
<path d="M18004 3805 c-7 -19 -21 -51 -29 -72 -8 -20 -13 -38 -11 -41 8 -7 26
9 26 24 0 24 67 19 75 -6 3 -11 11 -20 16 -20 6 0 7 9 3 23 -12 40 -53 127
-59 127 -3 0 -13 -16 -21 -35z m39 -35 c4 -15 0 -20 -14 -20 -20 0 -23 8 -13
34 7 20 20 13 27 -14z"/>
<path d="M18397 3834 c-4 -4 -7 -38 -7 -76 l0 -69 46 3 c54 3 77 26 57 56 -6
10 -9 30 -6 44 3 14 1 28 -4 31 -16 10 -78 18 -86 11z m71 -36 c3 -14 -3 -18
-27 -18 -25 0 -31 4 -31 21 0 16 5 20 27 17 17 -2 29 -10 31 -20z m7 -68 c0
-10 -12 -16 -32 -18 -28 -3 -33 0 -33 18 0 18 5 21 33 18 20 -2 32 -8 32 -18z"/>
<path d="M17712 3793 l-2 -43 -40 0 c-22 0 -40 -4 -40 -10 0 -5 18 -10 39 -10
40 0 40 0 44 -42 l4 -43 1 43 2 42 40 0 c22 0 40 5 40 10 0 6 -18 10 -39 10
-40 0 -40 0 -44 43 l-4 42 -1 -42z"/>
<path d="M18170 3811 c0 -14 -5 -18 -19 -14 -25 6 -51 -22 -51 -56 0 -36 17
-51 57 -51 l33 0 0 70 c0 40 -4 70 -10 70 -5 0 -10 -9 -10 -19z m-2 -65 c4
-32 -15 -51 -35 -34 -14 11 -18 50 -6 62 15 15 38 -1 41 -28z"/>
<path d="M18280 3812 c0 -13 -7 -18 -22 -18 -32 1 -56 -44 -40 -78 9 -21 19
-26 47 -26 l35 0 0 70 c0 40 -4 70 -10 70 -5 0 -10 -8 -10 -18z m0 -51 c11
-22 5 -47 -15 -55 -20 -7 -38 20 -31 49 8 30 31 33 46 6z"/>
<path d="M18750 3760 c0 -40 4 -70 10 -70 6 0 10 12 10 28 l1 27 24 -30 c31
-37 44 -26 16 13 -18 26 -19 31 -6 42 9 7 13 15 10 18 -3 3 -14 -3 -25 -13
-20 -18 -20 -18 -20 18 0 21 -4 37 -10 37 -6 0 -10 -30 -10 -70z"/>
<path d="M1080 3750 c0 -33 4 -60 10 -60 6 0 10 15 10 34 0 44 9 66 25 66 8 0
17 5 20 10 4 6 -8 10 -29 10 l-36 0 0 -60z"/>
<path d="M1160 3795 c-16 -19 -5 -34 12 -17 7 7 23 12 36 12 33 0 23 -24 -13
-30 -32 -6 -51 -30 -42 -53 5 -13 19 -16 55 -16 l49 2 -4 46 c-3 25 -6 52 -8
59 -6 17 -70 15 -85 -3z m68 -67 c-5 -15 -58 -24 -58 -10 0 15 12 22 38 22 14
0 22 -5 20 -12z"/>
<path d="M1280 3751 c0 -47 3 -61 14 -61 11 0 16 14 18 48 3 40 6 47 26 50 20
3 22 0 22 -47 0 -29 5 -51 10 -51 7 0 10 22 8 58 l-3 57 -47 3 -48 3 0 -60z"/>
<path d="M1413 3794 c-8 -22 9 -47 37 -54 33 -8 38 -30 7 -30 -14 0 -27 5 -29
12 -2 6 -10 9 -18 6 -10 -3 -9 -9 8 -26 27 -27 46 -28 72 -2 26 26 13 56 -30
65 -44 10 -38 29 6 20 28 -5 35 -3 32 7 -7 21 -77 23 -85 2z"/>
<path d="M1600 3794 c-21 -24 -16 -75 8 -94 26 -21 69 -15 83 11 11 22 -1 25
-30 7 -20 -12 -51 -5 -51 12 0 5 21 10 46 10 45 0 46 1 39 27 -3 15 -12 31
-18 35 -20 13 -64 9 -77 -8z m68 -21 c2 -8 -6 -13 -22 -13 -26 0 -40 12 -29
24 11 11 46 2 51 -11z"/>
<path d="M1720 3750 c0 -33 4 -60 10 -60 6 0 10 12 10 28 0 47 11 72 31 72 11
0 19 5 19 10 0 6 -16 10 -35 10 l-35 0 0 -60z"/>
<path d="M2000 3762 c0 -58 12 -72 62 -72 l38 0 0 60 c0 71 -18 81 -22 13 -3
-41 -6 -48 -25 -51 -21 -3 -23 0 -23 47 0 39 -4 51 -15 51 -11 0 -15 -12 -15
-48z"/>
<path d="M2130 3751 c0 -34 4 -61 10 -61 6 0 10 15 10 33 0 41 21 73 44 64 11
-5 16 -19 16 -52 0 -25 5 -45 10 -45 7 0 10 22 8 58 l-3 57 -47 3 -48 3 0 -60z"/>
<path d="M2391 3796 c-17 -20 -3 -45 32 -54 39 -10 48 -32 13 -32 -13 0 -28 5
-31 10 -3 6 -10 10 -16 10 -18 0 -9 -20 16 -36 37 -24 78 -5 73 33 -2 21 -10
29 -35 37 -44 12 -43 30 2 22 29 -6 34 -4 29 9 -8 19 -67 20 -83 1z"/>
<path d="M14920 3796 c0 -2 11 -34 25 -71 27 -70 27 -95 0 -95 -8 0 -15 -7
-15 -15 0 -20 23 -19 43 3 25 27 78 182 63 182 -7 0 -21 -21 -31 -46 -19 -50
-26 -48 -45 9 -6 20 -18 37 -26 37 -8 0 -14 -2 -14 -4z"/>
<path d="M15328 3789 c-10 -5 -18 -17 -18 -24 0 -19 5 -19 35 1 20 13 28 14
40 4 20 -17 10 -30 -24 -30 -28 0 -61 -26 -61 -48 0 -15 41 -43 52 -36 5 3 24
6 42 6 l32 0 -4 57 c-2 31 -9 62 -14 69 -12 14 -56 15 -80 1z m72 -77 c0 -14
-23 -32 -41 -32 -24 0 -35 20 -18 31 18 11 59 12 59 1z"/>
<path d="M15450 3729 c0 -54 3 -69 14 -69 11 0 16 15 18 53 3 48 5 52 28 52
23 0 25 -4 28 -52 2 -40 7 -53 19 -53 13 0 15 10 11 61 -5 69 -14 79 -75 77
l-43 -1 0 -68z"/>
<path d="M15736 3784 c-27 -27 -17 -45 37 -68 21 -8 36 -20 32 -26 -9 -15 -41
-12 -55 5 -8 10 -17 12 -23 6 -24 -24 37 -56 78 -41 40 15 29 80 -14 80 -9 0
-23 5 -31 10 -23 15 7 32 33 19 27 -15 43 -6 23 14 -22 21 -60 22 -80 1z"/>
<path d="M18534 3786 c-10 -8 -16 -18 -12 -22 4 -4 14 -1 23 6 8 7 22 9 32 6
21 -8 6 -23 -27 -28 -19 -2 -25 -9 -25 -28 0 -22 5 -25 43 -28 l42 -3 0 43 c0
64 -31 86 -76 54z m56 -55 c0 -5 -7 -14 -15 -21 -12 -10 -19 -10 -28 -1 -9 9
-9 14 3 21 19 12 40 13 40 1z"/>
<path d="M18658 3793 c-15 -4 -18 -15 -16 -56 1 -41 2 -44 5 -17 9 73 53 85
53 15 0 -25 5 -45 10 -45 6 0 10 22 10 49 0 35 -4 51 -16 55 -17 6 -19 6 -46
-1z"/>
<path d="M4080 3445 c0 -118 1 -125 20 -125 18 0 20 7 20 55 0 49 2 55 21 55
33 0 56 -17 89 -65 19 -27 39 -45 50 -45 11 0 20 2 20 5 0 10 -49 83 -60 90
-16 10 -12 22 10 28 23 6 42 49 33 74 -16 45 -33 53 -120 53 l-83 0 0 -125z
m161 74 c12 -19 11 -25 -7 -43 -10 -10 -33 -16 -65 -16 l-49 0 0 41 0 41 56
-4 c33 -3 60 -11 65 -19z"/>
<path d="M6510 3550 c0 -11 7 -20 15 -20 8 0 15 9 15 20 0 11 -7 20 -15 20 -8
0 -15 -9 -15 -20z"/>
<path d="M5097 3553 c-4 -3 -7 -15 -7 -25 0 -10 -7 -21 -15 -24 -8 -4 -15 -12
-15 -20 0 -8 7 -14 15 -14 12 0 15 -14 15 -70 0 -58 3 -71 19 -80 11 -5 26 -7
35 -4 18 7 10 34 -10 34 -10 0 -14 15 -14 60 0 47 3 60 15 60 8 0 15 6 15 14
0 8 -7 16 -15 20 -8 3 -15 17 -15 31 0 24 -10 32 -23 18z"/>
<path d="M5284 3543 c-3 -10 -11 -29 -17 -42 -9 -19 -9 -25 1 -28 8 -3 12 -27
12 -73 0 -58 3 -71 19 -80 20 -10 51 -4 51 11 0 4 -9 13 -20 19 -16 9 -20 21
-20 65 0 42 3 55 15 55 8 0 15 6 15 14 0 8 -7 16 -15 20 -8 3 -15 17 -15 31 0
29 -18 34 -26 8z"/>
<path d="M6427 3553 c-4 -3 -7 -15 -7 -25 0 -10 -7 -21 -15 -24 -8 -4 -15 -12
-15 -20 0 -8 7 -14 15 -14 12 0 15 -14 15 -70 0 -58 3 -71 19 -80 11 -5 26 -7
35 -4 18 7 10 34 -10 34 -10 0 -14 15 -14 60 0 47 3 60 15 60 8 0 15 6 15 14
0 8 -7 16 -15 20 -8 3 -15 17 -15 31 0 24 -10 32 -23 18z"/>
<path d="M4350 3482 c-73 -73 -10 -193 85 -162 38 13 67 60 36 60 -10 0 -24
-7 -31 -15 -23 -28 -80 -13 -80 22 0 9 19 13 66 13 l67 0 -7 32 c-8 42 -32 66
-73 74 -27 5 -37 1 -63 -24z m88 -24 c21 -21 13 -28 -33 -28 -25 0 -45 4 -45
8 0 15 24 32 45 32 12 0 26 -5 33 -12z"/>
<path d="M4544 3487 c-25 -22 -29 -32 -29 -76 0 -39 5 -56 22 -73 42 -41 133
-18 133 34 0 24 -27 23 -40 -2 -13 -25 -65 -28 -74 -4 -10 26 -7 79 6 92 17
17 57 15 64 -3 6 -16 44 -21 44 -6 0 19 -37 51 -66 57 -24 5 -37 0 -60 -19z"/>
<path d="M4735 3498 c-33 -18 -45 -40 -45 -84 0 -57 7 -72 42 -90 45 -23 118
3 118 43 0 18 -25 17 -40 -2 -18 -22 -67 -19 -80 4 -5 11 -10 22 -10 25 0 3
32 6 70 6 41 0 70 4 70 10 0 30 -32 81 -55 90 -33 12 -45 12 -70 -2z m75 -48
c10 -19 8 -20 -35 -20 -42 0 -58 13 -38 33 15 15 63 7 73 -13z"/>
<path d="M4957 3504 c-4 -4 -20 -7 -37 -6 l-30 1 0 -90 c0 -72 3 -89 15 -89
12 0 15 13 15 58 0 68 15 95 51 90 23 -3 24 -7 27 -75 3 -65 5 -73 22 -73 18
0 20 7 20 73 0 43 -5 80 -12 90 -15 18 -60 32 -71 21z"/>
<path d="M5403 3503 l-33 -4 0 -90 c0 -82 2 -89 20 -89 17 0 19 8 22 73 3 69
4 72 28 72 18 0 25 6 25 20 0 21 -11 24 -62 18z"/>
<path d="M5523 3500 c-31 -13 -49 -48 -28 -56 9 -4 21 1 28 11 16 21 72 17 72
-5 0 -9 -15 -17 -44 -22 -54 -9 -71 -23 -71 -59 0 -42 40 -66 86 -51 18 5 43
8 54 5 18 -5 20 0 20 58 0 84 -7 104 -36 118 -29 13 -50 13 -81 1z m77 -115
c0 -8 -11 -22 -24 -30 -20 -13 -29 -14 -46 -5 -26 14 -21 32 11 41 40 12 59
10 59 -6z"/>
<path d="M5747 3504 c-4 -4 -20 -7 -37 -6 l-30 1 0 -90 c0 -72 3 -89 15 -89
12 0 15 13 15 58 0 68 15 95 51 90 23 -3 24 -7 27 -75 3 -65 5 -73 22 -73 18
0 20 7 20 73 0 43 -5 80 -12 90 -15 18 -60 32 -71 21z"/>
<path d="M5903 3500 c-12 -5 -27 -18 -33 -29 -16 -31 3 -57 52 -73 52 -18 65
-48 20 -48 -16 0 -35 7 -42 15 -7 8 -19 15 -26 15 -21 0 -17 -27 7 -51 17 -17
29 -20 61 -16 50 7 68 22 68 58 0 32 -25 53 -77 64 -41 8 -45 35 -5 35 15 0
33 -5 39 -11 6 -6 19 -9 28 -7 16 3 16 5 -1 25 -22 26 -60 36 -91 23z"/>
<path d="M6085 3501 c-34 -14 -50 -40 -36 -54 10 -9 15 -8 26 6 9 13 23 17 47
15 51 -5 43 -31 -12 -40 -44 -7 -80 -36 -80 -62 0 -29 28 -49 66 -48 21 1 53
1 70 2 l31 0 -5 78 c-2 42 -9 83 -16 89 -15 17 -66 24 -91 14z m75 -111 c0
-13 -37 -50 -49 -50 -42 0 -55 35 -18 50 30 12 67 12 67 0z"/>
<path d="M6259 3481 c-23 -23 -29 -38 -29 -71 0 -33 6 -48 29 -71 33 -33 50
-35 90 -14 42 21 56 65 22 65 -10 0 -21 -9 -24 -21 -4 -16 -12 -20 -39 -17
-31 3 -33 5 -36 46 -2 24 2 50 9 58 15 19 58 18 65 -1 4 -8 15 -15 25 -15 15
0 17 4 10 23 -9 24 -45 47 -74 47 -10 0 -32 -13 -48 -29z"/>
<path d="M6620 3497 c-34 -17 -52 -55 -46 -100 8 -69 66 -103 124 -73 34 18
42 33 42 86 0 52 -8 68 -41 85 -34 18 -47 18 -79 2z m74 -43 c34 -34 13 -104
-32 -104 -38 0 -52 17 -52 60 0 20 5 41 12 48 17 17 54 15 72 -4z"/>
<path d="M6831 3501 c-7 -5 -22 -6 -32 -4 -18 5 -19 -1 -19 -86 0 -74 3 -91
15 -91 12 0 15 14 15 64 0 70 12 90 52 84 21 -3 23 -8 26 -75 3 -65 5 -73 22
-73 18 0 20 7 20 70 0 62 -3 74 -25 95 -25 26 -50 31 -74 16z"/>
<path d="M7003 3500 c-12 -5 -27 -18 -33 -29 -16 -31 3 -57 52 -73 52 -18 65
-48 20 -48 -16 0 -35 7 -42 15 -7 8 -19 15 -26 15 -21 0 -17 -27 7 -51 17 -17
29 -20 61 -16 50 7 68 22 68 58 0 32 -25 53 -77 64 -41 8 -45 35 -5 35 15 0
33 -5 39 -11 6 -6 19 -9 28 -7 16 3 16 5 -1 25 -22 26 -60 36 -91 23z"/>
<path d="M13020 3503 c0 -23 55 -143 65 -143 7 0 24 32 39 71 29 79 29 79 17
79 -5 0 -19 -27 -31 -60 -12 -33 -24 -60 -25 -60 -1 0 -13 27 -25 60 -12 33
-26 60 -31 60 -5 0 -9 -3 -9 -7z"/>
<path d="M13160 3495 c0 -8 5 -15 10 -15 6 0 10 7 10 15 0 8 -4 15 -10 15 -5
0 -10 -7 -10 -15z"/>
<path d="M13630 3435 c0 -43 4 -75 10 -75 6 0 10 32 10 75 0 43 -4 75 -10 75
-6 0 -10 -32 -10 -75z"/>
<path d="M13680 3436 c0 -44 4 -76 10 -76 6 0 10 30 10 69 0 39 -4 73 -10 76
-6 4 -10 -22 -10 -69z"/>
<path d="M6510 3410 c0 -73 3 -90 15 -90 12 0 15 17 15 90 0 73 -3 90 -15 90
-12 0 -15 -17 -15 -90z"/>
<path d="M13160 3415 c0 -30 5 -55 10 -55 6 0 10 25 10 55 0 30 -4 55 -10 55
-5 0 -10 -25 -10 -55z"/>
<path d="M13230 3463 c-21 -8 -30 -24 -30 -54 0 -34 21 -51 56 -47 40 4 42 26
3 25 -18 -1 -34 4 -36 11 -3 8 8 12 36 12 46 0 51 10 21 40 -21 21 -25 22 -50
13z m40 -23 c0 -5 -12 -10 -26 -10 -14 0 -23 4 -19 10 3 6 15 10 26 10 10 0
19 -4 19 -10z"/>
<path d="M13313 3444 c9 -44 25 -84 35 -84 5 0 14 15 19 33 10 32 12 30 27
-15 10 -32 25 -19 41 34 17 57 11 80 -7 30 -7 -18 -15 -32 -18 -32 -3 0 -11
15 -19 33 l-13 32 -17 -40 -18 -40 -7 32 c-10 42 -32 58 -23 17z"/>
<path d="M13530 3455 c-7 -9 -10 -19 -6 -22 4 -4 11 -1 15 6 9 15 45 11 43 -4
-1 -5 -12 -11 -24 -13 -28 -4 -49 -29 -41 -48 3 -9 21 -14 49 -14 l44 0 0 43
c0 24 -5 48 -12 55 -17 17 -53 15 -68 -3z m55 -54 c3 -6 -3 -15 -14 -21 -24
-12 -42 7 -20 21 18 11 26 11 34 0z"/>
<path d="M14913 3140 c-94 -22 -172 -104 -193 -204 -8 -36 -10 -358 -8 -1091
3 -993 4 -1042 22 -1075 34 -64 63 -95 117 -125 l54 -30 355 -2 c195 0 366 3
380 7 23 7 23 8 -10 10 l-35 3 35 7 c29 6 31 8 10 10 l-25 2 25 8 c23 7 23 8
-10 10 -33 2 -33 3 -10 10 14 4 18 9 10 10 -8 1 -4 6 10 10 23 7 23 8 -10 10
l-35 3 35 7 c29 6 31 8 10 10 l-25 2 25 8 c23 7 23 8 -10 10 -33 2 -33 3 -10
10 14 4 18 9 10 10 -8 1 -4 6 10 10 23 7 23 8 -10 10 l-35 3 35 7 c29 6 31 8
10 10 l-25 2 25 8 c23 7 23 8 -10 10 -33 2 -33 3 -10 10 14 4 18 9 10 10 -8 1
-4 6 10 10 23 7 23 8 -10 10 l-35 3 35 7 c29 6 31 8 10 10 l-25 2 25 8 c23 7
22 8 -10 9 -26 1 -31 4 -20 11 8 5 10 10 4 10 -14 0 -13 61 1 76 6 7 20 14 31
17 12 3 6 6 -16 7 l-35 3 35 7 c29 6 31 8 10 10 l-25 2 25 8 c23 7 23 8 -10
10 -33 2 -33 3 -10 10 14 4 18 9 10 10 -8 1 -4 6 10 10 23 7 23 8 -10 10 l-35
3 35 7 c29 6 31 8 10 10 l-25 2 25 8 c23 7 23 8 -10 10 -33 2 -33 3 -10 10 14
4 18 9 10 10 -8 1 -4 6 10 10 23 7 23 8 -10 10 l-35 3 35 7 c29 6 31 8 10 10
l-25 2 25 8 c23 7 23 8 -10 10 -33 2 -33 3 -10 10 14 4 18 9 10 10 -8 1 -4 6
10 10 23 7 23 8 -10 10 l-35 3 35 7 c23 5 28 8 13 9 -13 0 -23 6 -23 11 0 6
-5 10 -11 10 -5 0 -7 -5 -3 -12 5 -7 3 -8 -6 -3 -7 4 -34 7 -61 6 -26 0 -51 4
-54 10 -4 6 -11 7 -18 1 -7 -6 -51 -10 -99 -10 l-87 0 -4 31 -4 32 -1 -33 -2
-32 -90 1 -90 1 0 30 c0 23 -4 29 -16 24 -9 -3 -22 -6 -30 -6 -8 0 -14 -10
-14 -25 0 -20 -5 -25 -25 -25 -24 0 -25 2 -25 70 l0 70 80 0 c64 0 80 -3 80
-15 0 -8 9 -15 19 -15 15 0 21 -8 24 -37 l4 -38 1 38 2 37 135 -2 c75 -1 138
-5 141 -10 3 -5 11 -4 18 1 7 6 33 10 58 9 25 0 51 3 57 6 6 4 11 1 11 -6 0
-9 2 -10 8 -2 4 7 16 14 27 17 13 3 8 6 -15 7 l-35 3 35 7 c29 6 31 8 10 10
l-25 2 25 8 c23 7 23 8 -10 10 -33 2 -33 3 -10 10 14 4 18 9 10 10 -8 1 -4 6
10 10 23 7 23 8 -10 10 l-35 3 35 7 c29 6 31 8 10 10 l-25 2 25 8 c23 7 23 8
-10 10 -33 2 -33 3 -10 10 14 4 18 9 10 10 -8 1 -4 6 10 10 23 7 23 8 -10 10
l-35 3 35 7 c29 6 31 8 10 10 l-25 2 25 8 c23 7 23 8 -10 10 -33 2 -33 3 -10
10 14 4 18 9 10 10 -8 1 -4 6 10 10 23 7 23 8 -10 10 l-35 3 35 7 c29 6 31 8
10 10 l-25 2 25 8 c23 7 23 8 -10 10 -33 2 -33 3 -10 10 14 4 18 9 10 10 -8 1
-4 6 10 10 23 7 23 8 -10 10 l-35 3 35 7 c29 6 31 8 10 10 l-25 2 25 8 c23 7
23 8 -10 10 -33 2 -33 3 -10 10 14 4 18 9 10 10 -8 1 -4 6 10 10 23 7 23 8
-10 10 l-35 3 35 7 c29 6 31 8 10 10 l-25 2 25 8 c23 7 23 8 -10 10 -33 2 -33
3 -10 10 14 4 18 9 10 10 -8 1 -4 6 10 10 23 7 23 8 -10 10 l-35 3 35 7 c29 6
31 8 10 10 l-25 2 25 8 c23 7 23 8 -10 10 -33 2 -33 3 -10 10 14 4 18 9 10 10
-8 1 -4 6 10 10 23 7 23 8 -10 10 l-35 3 35 7 c29 6 31 8 10 10 l-25 2 25 8
c23 7 23 8 -10 10 -33 2 -33 3 -10 10 14 4 18 9 10 10 -8 1 -4 6 10 10 23 7
23 8 -10 10 l-35 3 35 7 c29 6 31 8 10 10 l-25 2 25 8 c23 7 23 8 -10 10 -33
2 -33 3 -10 10 14 4 18 9 10 10 -8 1 -4 6 10 10 23 7 23 8 -10 10 l-35 3 35 7
c29 6 31 8 10 10 l-25 2 25 8 c23 7 23 8 -10 10 -33 2 -33 3 -10 10 14 4 18 9
10 10 -8 1 -4 6 10 10 23 7 23 8 -10 10 l-35 3 35 7 c29 6 31 8 10 10 l-25 2
25 8 c23 7 23 8 -10 10 -33 2 -33 3 -10 10 14 4 18 9 10 10 -8 1 -4 6 10 10
21 7 18 8 -19 9 -26 1 -52 8 -63 18 -17 15 -18 15 -18 0 0 -12 -9 -17 -30 -17
-21 0 -30 5 -30 17 0 15 -1 15 -18 0 -25 -23 -75 -21 -96 2 -25 27 -30 81 -12
124 14 34 18 37 54 37 53 0 72 -23 72 -88 0 -51 1 -52 30 -52 30 0 30 1 30 54
0 54 16 85 43 87 26 2 72 11 76 15 2 2 -11 4 -30 5 -32 1 -32 2 -9 9 14 4 18
9 10 10 -8 1 -4 6 10 10 23 7 23 8 -10 10 l-35 3 35 7 c29 6 31 8 10 10 l-25
2 25 8 c23 7 23 8 -10 10 -33 2 -33 3 -10 10 14 4 18 9 10 10 -8 1 -4 6 10 10
23 7 23 8 -10 10 -19 1 -39 2 -43 1 -5 -1 -6 3 -3 8 3 5 -1 14 -9 21 -9 8 -15
30 -15 60 0 57 25 94 66 98 40 3 43 12 3 13 -32 1 -32 2 -9 9 14 4 18 9 10 10
-8 1 -4 6 10 10 23 7 23 8 -10 10 l-35 3 35 7 c29 6 31 8 10 10 l-25 2 25 8
c23 7 23 8 -10 10 -33 2 -33 3 -10 10 14 4 18 9 10 10 -8 1 -4 6 10 10 23 7
23 8 -10 10 l-35 3 35 7 c29 6 31 8 10 10 l-25 2 25 8 c23 7 23 8 -10 10 -33
2 -33 3 -10 10 14 4 18 9 10 10 -8 1 -4 6 10 10 23 7 23 8 -10 10 l-35 3 35 7
c29 6 31 8 10 10 l-25 2 25 8 c23 7 23 8 -10 10 -33 2 -33 3 -10 10 14 4 18 9
10 10 -8 1 -4 6 10 10 23 7 23 8 -10 10 l-35 3 35 7 c29 6 31 8 10 10 l-25 2
25 8 c32 10 -684 11 -727 0z m277 -362 c0 -26 2 -29 15 -18 8 7 34 10 62 8 45
-3 48 -2 45 20 -3 19 1 22 27 22 28 0 31 -3 31 -32 0 -25 3 -29 12 -20 7 7 22
12 35 12 16 0 23 6 23 20 0 16 7 20 30 20 l30 0 0 -90 0 -90 -53 0 c-29 0 -58
5 -65 12 -9 9 -12 9 -12 0 0 -9 -32 -12 -120 -11 l-120 1 0 40 c0 32 -3 39
-16 34 -9 -3 -29 -6 -45 -6 -27 0 -29 -3 -29 -35 0 -32 -2 -35 -30 -35 l-30 0
0 90 0 90 105 -1 105 -1 0 -30z m-102 -288 c27 -26 28 -50 2 -50 -26 0 -25 -4
5 -34 32 -32 32 -49 -4 -86 -34 -36 -52 -37 -85 -7 -33 31 -37 59 -8 66 l23 6
-21 17 c-11 10 -20 29 -20 43 0 29 36 65 65 65 12 0 31 -9 43 -20z m122 -90
c0 -89 0 -90 -25 -90 -24 0 -25 3 -25 55 0 48 -2 55 -20 55 -11 0 -20 5 -20
12 0 20 43 57 68 57 21 1 22 -2 22 -89z m118 3 c-3 -88 -3 -88 -30 -91 -28 -3
-28 -2 -28 52 0 49 -2 56 -20 56 -11 0 -20 5 -20 12 0 19 52 57 78 58 22 0 23
-2 20 -87z m-244 -1399 c19 -18 21 -55 4 -72 -21 -21 -75 -15 -92 10 -20 29
-20 34 4 58 24 24 63 26 84 4z m136 -4 c23 -23 24 -33 10 -61 -12 -22 -78 -27
-98 -7 -29 29 1 88 45 88 12 0 32 -9 43 -20z m132 8 c41 -34 19 -88 -36 -88
-38 0 -56 15 -56 46 0 45 56 70 92 42z m142 -4 c19 -18 21 -55 4 -72 -21 -21
-75 -15 -92 10 -20 29 -20 34 4 58 24 24 63 26 84 4z"/>
<path d="M15040 2755 c0 -28 21 -33 40 -10 15 18 5 35 -21 35 -14 0 -19 -7
-19 -25z"/>
<path d="M15414 2715 c-8 -19 2 -45 16 -45 5 0 10 14 10 30 0 31 -16 41 -26
15z"/>
<path d="M17790 2795 c0 -195 3 -355 8 -355 4 0 37 -7 74 -14 36 -8 97 -18
135 -21 60 -6 71 -5 92 14 l24 21 -23 0 -23 0 23 20 23 20 -23 0 -23 0 23 20
23 20 -23 0 -23 0 23 20 23 20 -23 0 -23 0 23 20 23 20 -23 0 -23 0 23 20 23
20 -23 0 -23 0 23 20 23 20 -23 0 -23 0 23 20 23 20 -23 0 -23 0 23 20 23 20
-23 0 -23 0 23 20 23 20 -23 0 -23 0 23 20 23 20 -23 0 -23 0 23 20 23 20 -23
0 -23 0 23 20 23 20 -23 0 -23 0 23 20 23 20 -23 0 -23 0 23 20 23 20 -23 0
-23 0 23 20 23 20 -23 0 -23 0 23 20 23 20 -23 0 -23 0 23 20 23 20 -24 1
c-13 0 -18 3 -11 6 39 16 -5 23 -143 23 l-155 0 0 -355z"/>
<path d="M536 3064 c-12 -12 -16 -37 -16 -104 0 -119 1 -120 140 -120 131 0
141 6 139 83 l-2 52 -6 -53 c-4 -30 -13 -57 -21 -62 -8 -6 -59 -10 -112 -10
-119 0 -128 6 -128 91 l0 59 83 2 82 2 -79 5 c-44 3 -81 11 -83 16 -8 26 18
39 89 45 l73 7 -72 2 c-53 1 -76 -3 -87 -15z"/>
<path d="M750 3061 c0 -12 -8 -21 -22 -24 -23 -4 -23 -4 -1 -6 14 -1 23 -9 26
-23 l4 -23 2 23 c1 16 7 22 24 23 l22 0 -24 10 c-15 6 -21 15 -17 24 3 8 1 15
-4 15 -6 0 -10 -9 -10 -19z"/>
<path d="M1020 3040 c-26 -26 -27 -99 -2 -128 26 -31 65 -35 96 -11 26 20 35
49 16 49 -5 0 -14 -9 -20 -20 -23 -43 -90 -11 -90 43 0 26 30 67 49 67 4 0 20
-9 34 -20 18 -15 28 -17 33 -9 10 18 -33 49 -67 49 -16 0 -38 -9 -49 -20z"/>
<path d="M1920 2975 l0 -85 39 0 c46 0 71 20 71 56 0 42 -18 64 -50 64 -25 0
-30 4 -30 25 0 16 -6 25 -15 25 -12 0 -15 -16 -15 -85z m85 -5 c10 -33 -4 -62
-28 -58 -22 3 -34 35 -23 64 8 21 44 17 51 -6z"/>
<path d="M2310 2975 c0 -47 4 -85 9 -85 5 0 11 10 13 22 4 31 22 33 38 3 7
-14 20 -25 27 -25 10 0 8 11 -9 39 -22 39 -22 40 -4 60 16 17 16 21 4 21 -9 0
-21 -7 -28 -15 -21 -25 -30 -17 -30 25 0 22 -4 40 -10 40 -6 0 -10 -35 -10
-85z"/>
<path d="M1801 3028 c-11 -30 -27 -43 -36 -28 -9 14 -58 13 -73 -2 -7 -7 -12
-29 -12 -49 0 -59 56 -85 91 -43 16 20 5 28 -19 13 -29 -18 -52 -5 -52 31 0
36 23 49 53 30 15 -9 22 -10 25 -1 9 26 21 8 24 -36 3 -43 6 -48 28 -52 24 -3
24 -2 7 16 -19 21 -23 79 -6 85 6 2 5 14 -5 33 l-15 29 -10 -26z"/>
<path d="M1170 2991 c-14 -27 -13 -64 3 -85 16 -21 60 -24 82 -6 18 15 20 81
3 98 -20 20 -76 15 -88 -7z m75 -41 c0 -30 -3 -35 -27 -38 -30 -4 -44 23 -33
59 5 15 14 19 33 17 24 -3 27 -8 27 -38z"/>
<path d="M1290 2951 c0 -47 3 -61 14 -61 11 0 16 14 18 48 3 40 6 47 26 50 20
3 22 0 22 -47 0 -29 5 -51 10 -51 7 0 10 22 8 58 l-3 57 -47 3 -48 3 0 -60z"/>
<path d="M1420 2951 c0 -47 3 -61 14 -61 11 0 16 14 18 48 3 40 6 47 26 50 20
3 22 0 22 -47 0 -29 5 -51 10 -51 7 0 10 22 8 58 l-3 57 -47 3 -48 3 0 -60z"/>
<path d="M1560 2994 c-21 -24 -16 -75 8 -94 26 -21 69 -15 83 11 11 22 -1 25
-30 7 -20 -12 -51 -5 -51 12 0 5 21 10 46 10 45 0 46 1 39 27 -3 15 -12 31
-18 35 -20 13 -64 9 -77 -8z m68 -21 c2 -8 -6 -13 -22 -13 -26 0 -40 12 -29
24 11 11 46 2 51 -11z"/>
<path d="M2060 2995 c-16 -19 -5 -34 12 -17 7 7 23 12 36 12 33 0 23 -24 -13
-30 -32 -6 -51 -30 -42 -53 5 -13 19 -16 55 -16 l49 2 -4 46 c-3 25 -6 52 -8
59 -6 17 -70 15 -85 -3z m68 -67 c-5 -15 -58 -24 -58 -10 0 15 12 22 38 22 14
0 22 -5 20 -12z"/>
<path d="M2180 2951 c0 -34 4 -61 10 -61 6 0 10 15 10 33 0 41 21 73 44 64 11
-5 16 -19 16 -52 0 -25 5 -45 10 -45 7 0 10 22 8 58 l-3 57 -47 3 -48 3 0 -60z"/>
<path d="M580 2900 c0 -5 7 -10 15 -10 8 0 15 5 15 10 0 6 -7 10 -15 10 -8 0
-15 -4 -15 -10z"/>
<path d="M640 2900 c0 -5 14 -10 30 -10 17 0 30 5 30 10 0 6 -13 10 -30 10
-16 0 -30 -4 -30 -10z"/>
<path d="M15610 2735 c0 -10 9 -15 28 -14 27 2 27 2 2 7 l-25 5 25 8 25 7 -27
1 c-19 1 -28 -4 -28 -14z"/>
<path d="M15623 2703 c9 -2 23 -2 30 0 6 3 -1 5 -18 5 -16 0 -22 -2 -12 -5z"/>
<path d="M8341 2573 c1 -55 3 -67 8 -43 5 32 9 35 46 40 33 4 41 9 43 29 2 13
0 27 -5 32 -5 5 -9 -3 -8 -19 0 -24 -4 -27 -38 -30 -37 -3 -38 -2 -35 25 2 22
9 29 33 34 29 6 29 7 -7 8 l-38 1 1 -77z"/>
<path d="M8898 2643 c7 -3 16 -2 19 1 4 3 -2 6 -13 5 -11 0 -14 -3 -6 -6z"/>
<path d="M8993 2575 c0 -44 2 -62 4 -40 3 22 9 45 15 52 7 9 7 13 0 13 -6 0
-13 12 -15 28 -2 15 -4 -9 -4 -53z"/>
<path d="M9323 2575 c0 -44 2 -69 4 -55 7 41 20 44 37 11 9 -17 19 -31 22 -31
2 0 -3 15 -13 33 -9 17 -16 35 -15 39 1 4 -5 5 -13 2 -10 -4 -15 5 -18 38 -2
23 -4 7 -4 -37z"/>
<path d="M8860 2625 c-7 -9 -11 -17 -9 -20 3 -2 10 5 17 15 14 24 10 26 -8 5z"/>
<path d="M8936 2627 c3 -10 9 -15 12 -12 3 3 0 11 -7 18 -10 9 -11 8 -5 -6z"/>
<path d="M8529 2593 c-12 -16 -12 -17 1 -7 8 6 22 14 30 17 13 5 12 6 -1 6 -9
1 -23 -7 -30 -16z"/>
<path d="M8633 2555 c0 -33 2 -45 4 -27 2 18 2 45 0 60 -2 15 -4 0 -4 -33z"/>
<path d="M8690 2600 c-8 -5 -12 -11 -10 -14 3 -2 14 2 24 10 22 15 10 19 -14
4z"/>
<path d="M9043 2599 c12 -7 18 -24 19 -57 l1 -47 4 43 c4 43 -9 72 -31 72 -6
0 -3 -5 7 -11z"/>
<path d="M9116 2594 c-30 -29 -10 -94 28 -94 8 0 20 7 27 17 13 15 12 15 -8 3
-18 -11 -24 -12 -37 -1 -25 21 -19 30 27 34 l42 4 -42 1 c-46 2 -53 11 -27 33
13 11 19 10 37 -1 20 -12 21 -12 8 3 -17 21 -35 22 -55 1z"/>
<path d="M9229 2593 c-13 -15 -12 -15 8 -3 18 12 24 12 40 -1 16 -13 17 -13 4
4 -17 21 -35 22 -52 0z"/>
<path d="M9423 2555 c0 -33 2 -45 4 -27 2 18 2 45 0 60 -2 15 -4 0 -4 -33z"/>
<path d="M9462 2555 c1 -44 2 -49 5 -20 3 22 10 46 16 54 9 11 9 13 0 8 -6 -4
-14 -1 -16 5 -3 7 -5 -14 -5 -47z"/>
<path d="M9513 2599 c12 -7 18 -24 19 -57 l1 -47 4 43 c4 43 -9 72 -31 72 -6
0 -3 -5 7 -11z"/>
<path d="M9590 2600 c-8 -5 -10 -10 -5 -10 6 0 17 5 25 10 8 5 11 10 5 10 -5
0 -17 -5 -25 -10z"/>
<path d="M9637 2580 c3 -11 7 -20 9 -20 2 0 4 9 4 20 0 11 -4 20 -9 20 -5 0
-7 -9 -4 -20z"/>
<path d="M8841 2574 c0 -11 3 -14 6 -6 3 7 2 16 -1 19 -3 4 -6 -2 -5 -13z"/>
<path d="M9572 2555 c0 -16 2 -22 5 -12 2 9 2 23 0 30 -3 6 -5 -1 -5 -18z"/>
<path d="M8671 2554 c0 -11 3 -14 6 -6 3 7 2 16 -1 19 -3 4 -6 -2 -5 -13z"/>
<path d="M9211 2554 c0 -11 3 -14 6 -6 3 7 2 16 -1 19 -3 4 -6 -2 -5 -13z"/>
<path d="M8526 2551 c-3 -4 6 -6 19 -3 14 2 25 6 25 8 0 8 -39 4 -44 -5z"/>
<path d="M8850 2543 c0 -6 8 -17 18 -24 16 -13 16 -13 2 6 -8 11 -16 22 -17
24 -2 2 -3 0 -3 -6z"/>
<path d="M8736 2525 c-3 -8 -1 -15 4 -15 6 0 10 7 10 15 0 8 -2 15 -4 15 -2 0
-6 -7 -10 -15z"/>
<path d="M8939 2523 c-13 -16 -12 -17 4 -4 16 13 21 21 13 21 -2 0 -10 -8 -17
-17z"/>
<path d="M9641 2535 c-7 -29 -6 -64 2 -56 5 5 7 21 4 37 -2 16 -5 25 -6 19z"/>
<path d="M8574 2519 c-4 -7 -3 -9 4 -5 5 3 13 0 15 -6 4 -9 6 -10 6 -1 1 17
-16 25 -25 12z"/>
<path d="M8692 2514 c10 -10 20 -16 22 -13 3 3 -5 11 -17 18 -21 13 -21 12 -5
-5z"/>
<path d="M9229 2517 c17 -22 35 -21 52 1 13 16 12 16 -4 3 -16 -13 -22 -13
-40 -1 -20 12 -21 12 -8 -3z"/>
<path d="M8528 2508 c5 -5 16 -8 23 -6 8 3 3 7 -10 11 -17 4 -21 3 -13 -5z"/>
<path d="M9590 2510 c8 -5 20 -10 25 -10 6 0 3 5 -5 10 -8 5 -19 10 -25 10 -5
0 -3 -5 5 -10z"/>
<path d="M8898 2503 c7 -3 16 -2 19 1 4 3 -2 6 -13 5 -11 0 -14 -3 -6 -6z"/>
<path d="M15407 2454 c-4 -4 -7 -29 -7 -56 0 -59 23 -63 28 -5 3 38 -9 73 -21
61z"/>
<path d="M15597 2443 c-4 -3 -7 -24 -7 -45 0 -27 4 -38 15 -38 18 0 20 26 3
33 -10 4 -10 6 0 6 6 1 12 8 12 16 0 8 -6 15 -12 15 -9 0 -8 4 2 10 8 5 10 10
4 10 -6 0 -14 -3 -17 -7z"/>
<path d="M17850 2393 c40 -21 120 -47 126 -40 5 5 -62 34 -98 41 -14 3 -34 8
-45 12 -10 3 -2 -3 17 -13z"/>
<path d="M17862 2345 c71 -48 70 -83 -2 -114 -27 -12 -53 -21 -59 -21 -6 0
-11 -16 -11 -36 l0 -37 83 8 c45 4 87 10 92 14 6 4 44 14 85 22 41 8 65 15 52
17 l-23 4 22 19 22 19 -24 0 c-19 0 -21 2 -9 10 13 8 11 11 -7 16 -13 4 -23
10 -23 15 0 5 -6 9 -14 9 -15 0 -158 53 -188 70 -35 20 -32 9 4 -15z"/>
<path d="M17790 2295 c0 -42 4 -55 15 -55 18 0 85 31 85 40 0 15 -75 70 -94
70 -3 0 -6 -25 -6 -55z"/>
<path d="M18010 2336 c28 -17 50 -21 35 -7 -6 5 -21 12 -35 15 l-25 7 25 -15z"/>
<path d="M8110 2310 c0 -7 303 -10 890 -10 587 0 890 3 890 10 0 7 -303 10
-890 10 -587 0 -890 -3 -890 -10z"/>
<path d="M18085 2151 c-9 -7 -60 -15 -247 -37 -45 -6 -48 -8 -48 -35 l0 -29
83 6 c118 10 213 29 232 48 15 15 15 16 -6 16 l-22 0 23 20 c16 14 18 20 9 20
-8 0 -19 -4 -24 -9z"/>
<path d="M17873 2033 l-83 -4 0 -29 0 -30 88 5 c119 8 198 24 224 46 21 19 20
19 -63 17 -46 -1 -121 -4 -166 -5z"/>
<path d="M17893 1953 l-103 -4 0 -30 c0 -25 3 -29 23 -24 17 4 234 25 258 25
3 0 16 9 29 20 l23 20 -64 -2 c-35 -1 -110 -4 -166 -5z"/>
<path d="M17873 1873 c-78 -4 -83 -5 -83 -26 0 -22 1 -22 112 -15 62 3 127 7
144 7 17 1 41 10 54 21 l23 20 -84 -2 c-46 -1 -121 -4 -166 -5z"/>
<path d="M17858 1802 c-66 -3 -68 -4 -68 -29 l0 -26 77 7 c42 3 106 6 143 6
53 0 72 4 90 20 l23 20 -59 1 c-32 1 -77 2 -99 3 -22 1 -70 0 -107 -2z"/>
<path d="M17790 1705 c0 -23 4 -25 45 -25 54 0 229 18 265 27 l25 6 -25 7
c-14 5 -89 8 -167 9 l-143 1 0 -25z"/>
<path d="M17858 1653 c-60 -4 -68 -6 -68 -24 0 -19 4 -20 153 -13 83 4 159 10
167 15 11 6 9 9 -10 9 -20 0 -22 2 -10 10 15 10 -77 11 -232 3z"/>
<path d="M17813 1582 c-16 -2 -23 -10 -23 -25 0 -22 2 -22 127 -17 100 4 133
9 153 23 24 17 23 17 -60 18 -47 0 -105 1 -130 2 -25 1 -55 1 -67 -1z"/>
<path d="M5030 1475 c0 -50 4 -85 10 -85 6 0 10 13 10 29 0 26 4 29 45 35 63
10 83 48 45 86 -14 14 -33 20 -65 20 l-45 0 0 -85z m98 33 c-2 -19 -10 -24
-40 -26 -35 -3 -38 -1 -38 22 0 24 4 26 41 26 36 0 40 -2 37 -22z"/>
<path d="M5180 1475 c0 -50 4 -85 10 -85 6 0 10 35 10 85 0 50 -4 85 -10 85
-6 0 -10 -35 -10 -85z"/>
<path d="M5360 1545 c0 -8 5 -15 10 -15 6 0 10 7 10 15 0 8 -4 15 -10 15 -5 0
-10 -7 -10 -15z"/>
<path d="M5490 1536 c0 -21 -6 -25 -32 -28 -44 -4 -66 -45 -46 -85 11 -23 21
-29 56 -31 l42 -3 0 85 c0 51 -4 86 -10 86 -5 0 -10 -11 -10 -24z m-5 -86 c0
-31 -3 -35 -25 -35 -19 0 -26 6 -28 23 -5 36 5 54 30 50 19 -2 23 -9 23 -38z"/>
<path d="M5625 1535 c-27 -27 -32 -68 -13 -110 11 -25 44 -40 83 -37 27 2 59
42 45 56 -7 7 -15 4 -26 -12 -17 -24 -53 -29 -72 -10 -13 13 -16 76 -4 94 15
24 50 26 72 4 18 -18 21 -19 27 -4 8 22 -22 44 -59 44 -17 0 -39 -10 -53 -25z"/>
<path d="M5770 1475 c0 -50 4 -85 10 -85 6 0 10 17 10 38 0 46 12 65 36 60 15
-2 20 -14 22 -51 2 -26 8 -47 13 -47 6 0 9 24 7 58 l-3 57 -37 3 c-33 3 -38 7
-38 28 0 13 -4 24 -10 24 -6 0 -10 -35 -10 -85z"/>
<path d="M6140 1475 c0 -69 3 -85 15 -85 9 0 15 9 15 25 0 14 5 25 10 25 6 0
16 -11 22 -25 6 -14 17 -25 25 -25 18 0 17 7 -8 42 l-21 29 23 25 c17 18 19
24 7 24 -9 0 -21 -7 -28 -15 -21 -25 -30 -17 -30 25 0 29 -4 40 -15 40 -12 0
-15 -16 -15 -85z"/>
<path d="M6260 1545 c0 -8 5 -15 10 -15 6 0 10 7 10 15 0 8 -4 15 -10 15 -5 0
-10 -7 -10 -15z"/>
<path d="M13243 1470 c0 -36 2 -55 4 -42 2 12 9 22 15 22 5 0 19 -10 30 -22
18 -21 18 -20 -1 9 l-21 32 22 15 c12 9 18 16 12 16 -6 0 -19 -10 -30 -21
l-19 -21 -6 38 c-5 31 -6 25 -6 -26z"/>
<path d="M18075 1511 c-10 -17 15 -23 31 -7 14 15 14 16 -5 16 -11 0 -22 -4
-26 -9z"/>
<path d="M5236 1494 c-9 -23 -2 -28 22 -13 21 13 57 5 47 -11 -3 -5 -16 -10
-28 -10 -33 0 -49 -15 -45 -41 3 -21 8 -24 53 -26 l50 -1 -5 56 -5 57 -41 3
c-32 2 -43 -1 -48 -14z m68 -69 c-6 -16 -54 -21 -54 -7 0 15 12 22 36 22 17 0
22 -4 18 -15z"/>
<path d="M5360 1450 c0 -33 4 -60 10 -60 6 0 10 27 10 60 0 33 -4 60 -10 60
-6 0 -10 -27 -10 -60z"/>
<path d="M5906 1488 c-22 -31 -20 -55 8 -83 25 -25 55 -25 77 1 16 20 5 28
-19 13 -21 -13 -52 -7 -52 11 0 5 20 10 44 10 41 0 44 2 39 23 -9 34 -23 47
-54 47 -17 0 -34 -8 -43 -22z m72 -15 c2 -9 -7 -13 -27 -13 -30 0 -39 9 -24
24 11 10 46 3 51 -11z"/>
<path d="M6034 1484 c-33 -49 16 -116 65 -91 29 14 39 37 17 37 -9 0 -16 -5
-16 -11 0 -6 -10 -9 -22 -7 -19 2 -23 9 -23 38 0 29 4 36 23 38 12 2 22 -1 22
-7 0 -6 7 -11 15 -11 13 0 14 4 5 20 -16 30 -65 27 -86 -6z"/>
<path d="M6260 1450 c0 -33 4 -60 10 -60 6 0 10 27 10 60 0 33 -4 60 -10 60
-6 0 -10 -27 -10 -60z"/>
<path d="M6310 1451 c0 -34 4 -61 10 -61 6 0 10 17 10 39 0 41 20 67 45 57 10
-4 15 -19 15 -51 0 -25 5 -45 10 -45 7 0 10 22 8 58 l-3 57 -47 3 -48 3 0 -60z"/>
<path d="M6446 1494 c-37 -36 -6 -104 47 -104 30 0 30 -1 14 -17 -14 -15 -21
-15 -37 -5 -25 15 -30 15 -30 -2 0 -28 59 -35 84 -10 12 11 16 35 16 85 l0 69
-39 0 c-23 0 -46 -7 -55 -16z m70 -29 c11 -46 -35 -75 -56 -35 -8 14 -8 26 0
40 15 29 48 26 56 -5z"/>
<path d="M17790 1485 c0 -23 4 -25 43 -25 51 0 106 14 132 35 18 13 11 14 -77
15 -98 0 -98 0 -98 -25z"/>
<path d="M12886 1492 c-4 -6 3 -8 15 -5 12 4 25 0 31 -8 8 -12 9 -11 5 1 -4
17 -42 26 -51 12z"/>
<path d="M13002 1494 c11 -4 18 -19 21 -45 l4 -39 -1 42 c-1 35 -5 43 -21 45
-15 1 -15 0 -3 -3z"/>
<path d="M13072 1488 c-26 -26 -7 -79 28 -77 9 0 6 4 -7 9 -33 13 -28 30 7 30
18 0 30 5 30 13 0 16 -20 37 -35 37 -6 0 -16 -5 -23 -12z m46 -15 c2 -8 -6
-13 -22 -13 -25 0 -33 10 -19 24 10 10 36 3 41 -11z"/>
<path d="M13166 1492 c-4 -6 3 -8 15 -5 12 4 25 0 31 -8 8 -12 9 -11 5 1 -4
17 -42 26 -51 12z"/>
<path d="M13333 1455 c0 -27 2 -38 4 -22 2 15 2 37 0 50 -2 12 -4 0 -4 -28z"/>
<path d="M13371 1450 l2 -45 6 40 c5 33 10 40 28 39 12 0 20 3 17 8 -3 4 -16
7 -29 6 -23 -2 -25 -6 -24 -48z"/>
<path d="M13476 1491 c-4 -5 3 -7 14 -4 23 6 26 13 6 13 -8 0 -17 -4 -20 -9z"/>
<path d="M18002 1479 c-45 -29 -40 -55 18 -90 44 -27 58 -28 81 -8 l22 19 -24
0 c-19 0 -21 2 -9 10 12 7 9 13 -14 31 -15 12 -31 30 -34 40 -7 17 -9 17 -40
-2z"/>
<path d="M4428 1479 c-15 -8 -18 -25 -18 -95 0 -82 1 -85 26 -94 28 -11 136
-12 174 -1 22 6 25 12 26 56 1 47 1 47 -3 7 -3 -35 -9 -45 -29 -52 -33 -13
-126 -13 -158 0 -24 9 -26 15 -26 64 l0 55 68 4 67 3 -67 2 c-60 2 -68 4 -68
22 0 19 12 23 95 33 17 2 9 5 -20 5 -27 1 -58 -3 -67 -9z"/>
<path d="M13521 1474 c0 -11 3 -14 6 -6 3 7 2 16 -1 19 -3 4 -6 -2 -5 -13z"/>
<path d="M4600 1464 c0 -8 -4 -12 -10 -9 -5 3 -10 1 -10 -4 0 -6 4 -11 9 -11
5 0 12 -8 14 -17 4 -16 5 -16 6 -1 0 9 7 18 14 20 9 2 8 8 -5 21 -16 15 -18
15 -18 1z"/>
<path d="M13461 1454 c0 -11 3 -14 6 -6 3 7 2 16 -1 19 -3 4 -6 -2 -5 -13z"/>
<path d="M13521 1434 c0 -11 3 -14 6 -6 3 7 2 16 -1 19 -3 4 -6 -2 -5 -13z"/>
<path d="M17790 1415 c0 -14 2 -25 4 -25 8 0 76 42 76 46 0 2 -18 4 -40 4 -36
0 -40 -2 -40 -25z"/>
<path d="M17901 1416 c-30 -32 -24 -62 19 -97 35 -28 35 -28 110 -17 41 7 66
14 55 16 -11 2 -22 7 -25 11 -3 3 -23 15 -45 26 -22 11 -49 34 -60 52 -11 18
-23 32 -26 33 -3 0 -16 -11 -28 -24z"/>
<path d="M12887 1418 c2 -5 13 -8 23 -8 10 0 21 3 23 8 3 4 -8 7 -23 7 -15 0
-26 -3 -23 -7z"/>
<path d="M13167 1418 c2 -5 13 -8 23 -8 10 0 21 3 23 8 3 4 -8 7 -23 7 -15 0
-26 -3 -23 -7z"/>
<path d="M13478 1418 c5 -5 16 -8 23 -6 8 3 3 7 -10 11 -17 4 -21 3 -13 -5z"/>
<path d="M15030 1394 c0 -9 5 -14 12 -12 18 6 21 28 4 28 -9 0 -16 -7 -16 -16z"/>
<path d="M13478 1383 c6 -2 18 -2 25 0 6 3 1 5 -13 5 -14 0 -19 -2 -12 -5z"/>
<path d="M17817 1364 c-37 -35 -36 -72 6 -110 46 -43 59 -52 100 -69 l37 -15
0 42 c0 40 -4 46 -47 78 -30 22 -52 48 -58 67 l-11 32 -27 -25z"/>
<path d="M15510 1355 c0 -8 5 -15 10 -15 6 0 10 7 10 15 0 8 -4 15 -10 15 -5
0 -10 -7 -10 -15z"/>
<path d="M4458 1333 c7 -3 16 -2 19 1 4 3 -2 6 -13 5 -11 0 -14 -3 -6 -6z"/>
<path d="M4513 1333 c9 -2 25 -2 35 0 9 3 1 5 -18 5 -19 0 -27 -2 -17 -5z"/>
<path d="M17790 1171 l0 -69 46 -41 c26 -23 54 -41 63 -41 9 0 26 -3 39 -6 21
-6 22 -4 22 60 0 52 -3 66 -15 66 -8 0 -15 4 -15 9 0 5 -10 11 -23 15 -13 3
-45 22 -70 41 l-47 36 0 -70z"/>
<path d="M18098 1181 c-29 -26 -33 -35 -33 -81 0 -46 4 -55 32 -81 18 -16 44
-31 58 -35 39 -10 96 17 123 56 l24 35 -41 3 c-29 2 -41 8 -41 19 0 13 8 14
40 9 45 -7 48 -1 25 44 -22 42 -53 60 -107 60 -39 0 -54 -6 -80 -29z"/>
<path d="M5053 1173 c-29 -19 -30 -59 -3 -73 15 -8 20 -21 20 -48 l-1 -37 -19
24 c-11 13 -20 18 -20 11 0 -7 10 -22 23 -34 l23 -21 21 20 c11 11 23 26 27
32 9 17 -11 53 -29 53 -10 0 -15 10 -15 30 0 32 8 37 29 18 11 -11 13 -10 9 1
-2 8 -13 20 -24 27 -15 10 -23 9 -41 -3z m17 -33 c0 -31 -16 -41 -26 -15 -5
13 11 45 22 45 2 0 4 -13 4 -30z m38 -82 c2 -16 -3 -28 -12 -31 -13 -5 -16 1
-16 29 0 41 23 43 28 2z"/>
<path d="M5190 1153 c-24 -25 -24 -25 -3 -19 21 7 22 4 26 -61 3 -65 3 -64 5
20 1 48 1 87 0 86 -2 -1 -14 -12 -28 -26z"/>
<path d="M5423 1172 c-41 -26 -39 -135 3 -154 39 -18 64 12 64 77 0 65 -30
100 -67 77z m41 -18 c31 -31 13 -134 -23 -134 -19 0 -31 29 -31 75 0 68 22 92
54 59z"/>
<path d="M5607 1162 c-25 -27 -23 -114 2 -136 58 -53 111 83 54 139 -19 20
-36 19 -56 -3z m51 -4 c26 -26 10 -138 -19 -138 -21 0 -39 35 -39 75 0 58 30
91 58 63z"/>
<path d="M5737 1162 c-25 -27 -23 -114 2 -136 58 -53 111 83 54 139 -19 20
-36 19 -56 -3z m51 -4 c26 -26 10 -138 -19 -138 -21 0 -39 35 -39 75 0 58 30
91 58 63z"/>
<path d="M5300 1149 c-24 -19 -24 -20 -3 -14 21 6 22 3 26 -62 l3 -68 2 83 c1
45 1 82 0 82 -2 0 -14 -10 -28 -21z"/>
<path d="M950 1075 c0 -43 4 -75 10 -75 6 0 10 14 10 30 0 27 3 30 33 30 36 0
57 15 57 41 0 29 -29 49 -71 49 l-39 0 0 -75z m80 40 c17 -20 4 -35 -31 -35
-24 0 -29 4 -29 25 0 20 5 25 24 25 13 0 29 -7 36 -15z"/>
<path d="M1080 1075 c0 -43 4 -75 10 -75 6 0 10 32 10 75 0 43 -4 75 -10 75
-6 0 -10 -32 -10 -75z"/>
<path d="M1790 1055 c0 -57 4 -95 10 -95 6 0 10 38 10 95 0 57 -4 95 -10 95
-6 0 -10 -38 -10 -95z"/>
<path d="M1900 1075 l0 -75 45 0 c25 0 45 5 45 10 0 6 -16 10 -35 10 l-35 0 0
65 c0 37 -4 65 -10 65 -6 0 -10 -32 -10 -75z"/>
<path d="M1990 1140 c0 -5 9 -10 20 -10 18 0 20 -7 20 -65 0 -51 3 -65 15 -65
12 0 15 14 15 65 0 58 2 65 20 65 11 0 20 5 20 10 0 6 -25 10 -55 10 -30 0
-55 -4 -55 -10z"/>
<path d="M2120 1075 l0 -75 44 0 c52 0 76 24 76 77 0 46 -30 73 -80 73 l-40 0
0 -75z m78 39 c41 -28 22 -94 -28 -94 -30 0 -30 1 -30 55 0 61 14 70 58 39z"/>
<path d="M1128 1104 c-11 -11 -10 -62 2 -85 8 -13 21 -19 45 -19 l35 0 0 56
c0 34 -4 53 -10 49 -5 -3 -10 -24 -10 -46 0 -36 -2 -40 -22 -37 -19 2 -24 11
-28 46 -3 24 -8 40 -12 36z"/>
<path d="M1240 1053 c0 -63 18 -71 22 -10 2 29 8 42 18 42 10 0 16 -13 18 -42
2 -24 7 -43 12 -43 5 0 10 19 12 43 2 29 8 42 18 42 10 0 16 -13 18 -42 2 -24
7 -43 13 -43 11 0 13 99 2 101 -5 1 -36 2 -70 3 l-63 2 0 -53z"/>
<path d="M1430 1103 c-21 -8 -30 -24 -30 -54 0 -34 21 -51 56 -47 40 4 42 26
3 25 -18 -1 -34 4 -36 11 -3 8 8 12 36 12 46 0 51 10 21 40 -21 21 -25 22 -50
13z m40 -23 c0 -5 -12 -10 -26 -10 -14 0 -23 4 -19 10 3 6 15 10 26 10 10 0
19 -4 19 -10z"/>
<path d="M1527 1092 c-33 -36 -14 -92 31 -92 35 0 52 17 52 50 0 34 -10 47
-41 55 -18 4 -30 1 -42 -13z m61 -33 c2 -15 -4 -31 -13 -39 -24 -20 -50 9 -41
45 9 36 50 32 54 -6z"/>
<path d="M1630 1099 c0 -8 5 -20 12 -27 10 -10 8 -19 -5 -42 -20 -33 -4 -43
19 -12 12 16 14 16 28 -3 20 -28 31 -12 12 17 -14 22 -14 26 0 47 20 27 13 38
-10 15 -16 -15 -18 -15 -36 1 -16 15 -20 15 -20 4z"/>
<path d="M17790 981 l0 -81 28 0 c15 0 59 -3 97 -6 58 -6 68 -4 58 7 -7 7 -13
28 -13 46 0 27 -4 34 -27 39 -58 12 -69 17 -105 46 l-38 30 0 -81z"/>
<path d="M480 945 c0 -87 3 -105 15 -105 11 0 15 11 15 40 0 39 1 40 36 40 82
0 123 61 74 110 -16 16 -33 20 -80 20 l-60 0 0 -105z m121 59 c21 -25 -1 -49
-50 -52 -41 -3 -41 -3 -41 32 0 35 1 36 39 36 23 0 44 -6 52 -16z"/>
<path d="M3054 1017 c-3 -8 -4 -54 -2 -103 l3 -89 40 -2 c23 0 29 1 15 4 -44
9 -50 21 -50 98 0 77 7 90 50 98 18 3 15 5 -13 6 -23 0 -40 -4 -43 -12z"/>
<path d="M3196 976 c3 -8 12 -17 20 -20 32 -12 10 -25 -48 -29 l-63 -3 63 -2
c34 -1 62 -5 62 -10 0 -4 -9 -16 -21 -25 -11 -10 -18 -21 -15 -24 8 -8 66 47
66 62 0 12 -51 65 -63 65 -3 0 -4 -6 -1 -14z"/>
<path d="M972 828 c-28 -76 -34 -98 -27 -98 3 0 10 11 15 25 14 36 66 36 81
-1 5 -15 12 -25 15 -22 6 7 -49 148 -58 148 -3 0 -15 -24 -26 -52z m43 -10 c6
-25 4 -28 -18 -28 -24 0 -25 1 -14 35 11 38 22 36 32 -7z"/>
<path d="M1150 816 c0 -50 -4 -65 -16 -70 -22 -8 -44 11 -44 39 0 27 24 50 42
39 11 -6 11 -4 0 7 -18 20 -46 -1 -50 -37 -3 -40 10 -57 47 -59 l31 -2 0 74
c0 40 -2 73 -5 73 -3 0 -5 -29 -5 -64z"/>
<path d="M1580 873 c-20 -7 -50 -34 -50 -45 0 -4 9 1 20 12 40 40 111 33 130
-12 6 -16 9 -18 9 -6 2 36 -65 67 -109 51z"/>
<path d="M1843 805 c0 -44 2 -61 4 -37 2 23 2 59 0 80 -2 20 -4 1 -4 -43z"/>
<path d="M17790 847 l0 -35 98 -6 c187 -12 237 -14 214 -9 l-23 5 22 19 22 19
-31 0 c-18 0 -32 4 -32 9 0 4 -47 11 -105 15 -59 4 -119 9 -135 13 -29 5 -30
4 -30 -30z"/>
<path d="M1243 829 c12 -7 17 -24 19 -57 l1 -47 6 50 c5 39 3 52 -9 57 -24 10
-37 9 -17 -3z"/>
<path d="M1302 828 c10 -8 19 -31 21 -58 3 -38 4 -36 3 10 -1 47 -4 55 -21 58
-18 4 -19 3 -3 -10z"/>
<path d="M1373 785 c0 -33 2 -45 4 -27 2 18 2 45 0 60 -2 15 -4 0 -4 -33z"/>
<path d="M1412 780 c1 -49 2 -50 5 -13 5 49 25 72 47 53 8 -6 17 -30 19 -53
l4 -42 1 46 c2 53 -10 68 -50 66 -27 -2 -28 -4 -26 -57z"/>
<path d="M1576 821 c-19 -21 -21 -65 -3 -78 21 -16 88 -8 103 12 8 10 14 24
14 29 0 6 -6 2 -12 -9 -27 -48 -49 -40 -37 12 5 21 9 40 9 43 0 14 -60 7 -74
-9z m52 -22 c3 -28 -22 -62 -42 -56 -16 5 -19 42 -6 67 15 28 44 22 48 -11z"/>
<path d="M1731 811 c1 -15 3 -19 6 -9 6 22 32 31 49 17 21 -17 17 -56 -8 -73
-12 -9 -17 -16 -11 -16 19 0 43 30 43 53 0 34 -15 50 -49 52 -27 2 -31 -1 -30
-24z"/>
<path d="M1950 796 c0 -50 -24 -70 -48 -39 -13 17 -14 17 -10 -2 2 -15 11 -20
36 -20 l32 -1 0 53 c0 29 -2 53 -5 53 -3 0 -5 -20 -5 -44z"/>
<path d="M2043 829 c12 -7 17 -24 19 -57 l1 -47 6 50 c5 39 3 52 -9 57 -24 10
-37 9 -17 -3z"/>
<path d="M2102 828 c10 -8 19 -31 21 -58 3 -38 4 -36 3 10 -1 47 -4 55 -21 58
-18 4 -19 3 -3 -10z"/>
<path d="M2176 824 c-30 -30 -10 -94 29 -94 7 0 21 7 29 16 23 23 19 30 -5 8
-15 -13 -24 -16 -36 -8 -33 20 -26 34 16 34 29 0 41 4 41 14 0 18 -27 46 -45
46 -7 0 -21 -7 -29 -16z m52 -6 c20 -20 14 -28 -23 -28 -19 0 -35 4 -35 8 0
12 22 32 35 32 6 0 16 -5 23 -12z"/>
<path d="M2286 818 c-21 -29 -20 -41 3 -69 16 -21 22 -22 45 -11 20 9 26 19
26 45 0 57 -45 77 -74 35z m52 0 c25 -25 8 -78 -25 -78 -22 0 -37 44 -24 69
13 24 31 27 49 9z"/>
<path d="M2391 835 c0 -5 6 -19 14 -29 13 -17 12 -22 -6 -47 -11 -16 -17 -29
-12 -29 4 0 14 10 22 22 l14 22 17 -22 c26 -32 35 -27 11 6 -18 27 -19 31 -5
51 9 12 14 25 11 28 -3 2 -11 -5 -17 -18 l-12 -22 -19 24 c-10 13 -19 20 -18
14z"/>
<path d="M2562 828 c-17 -17 -15 -73 3 -88 17 -14 51 -5 60 17 5 15 3 14 -14
-1 -29 -26 -51 -14 -51 28 0 37 23 54 46 35 9 -7 14 -8 14 -1 0 9 -22 22 -39
22 -4 0 -12 -5 -19 -12z"/>
<path d="M2656 818 c-21 -29 -20 -41 3 -69 16 -21 22 -22 45 -11 20 9 26 19
26 45 0 57 -45 77 -74 35z m52 0 c25 -25 8 -78 -25 -78 -22 0 -37 44 -24 69
13 24 31 27 49 9z"/>
<path d="M2762 780 c1 -49 2 -50 5 -13 4 42 24 70 43 58 5 -3 11 -27 12 -53
l1 -47 4 42 c5 49 25 72 48 53 11 -9 15 -9 15 -1 0 17 -28 25 -44 12 -9 -8
-16 -8 -20 -2 -4 6 -20 9 -36 8 -30 -2 -30 -3 -28 -57z"/>
<path d="M1201 778 c1 -55 5 -50 11 15 2 20 0 37 -4 37 -4 0 -7 -24 -7 -52z"/>
<path d="M2001 778 c1 -55 5 -50 11 15 2 20 0 37 -4 37 -4 0 -7 -24 -7 -52z"/>
<path d="M1522 779 c-3 -51 34 -84 93 -84 29 0 50 6 62 18 17 17 17 17 -15 1
-39 -19 -91 -13 -115 14 -8 9 -17 33 -20 52 l-4 35 -1 -36z"/>
<path d="M17790 698 l0 -88 151 0 c120 0 153 3 165 15 14 13 13 15 -7 15 l-22
0 23 20 23 20 -23 0 -23 0 23 20 23 20 -23 0 -23 0 22 19 22 20 -43 5 c-24 3
-98 9 -166 13 l-122 8 0 -87z"/>
<path d="M1730 735 c0 -27 2 -46 5 -43 8 8 9 77 2 85 -4 3 -7 -15 -7 -42z"/>
<path d="M4190 241 c23 -6 25 -13 30 -76 l6 -70 4 70 c5 64 7 70 30 76 17 5 5
7 -35 7 -40 0 -51 -2 -35 -7z"/>
<path d="M6418 175 c-14 -41 -23 -75 -19 -75 4 0 13 11 19 25 8 17 20 25 37
25 17 0 29 -8 37 -25 6 -14 15 -25 20 -25 6 0 8 3 6 8 -1 4 -14 38 -28 75 -14
37 -29 67 -35 67 -5 0 -22 -34 -37 -75z m56 8 c6 -20 4 -23 -18 -23 -30 0 -29
-2 -15 40 12 34 19 30 33 -17z"/>
<path d="M8026 237 c-30 -22 -16 -50 32 -65 30 -10 42 -19 42 -33 0 -28 -56
-29 -77 -1 -12 15 -13 14 -13 -1 0 -37 70 -49 94 -15 20 28 6 54 -35 63 -34 8
-49 32 -28 46 20 13 26 11 49 -13 16 -18 20 -19 20 -5 0 17 -28 37 -52 37 -8
0 -22 -6 -32 -13z"/>
<path d="M9400 175 l0 -75 39 0 c22 0 46 7 54 15 22 22 30 70 16 97 -17 32
-28 38 -71 38 l-38 0 0 -75z m92 42 c4 -6 8 -25 8 -42 0 -41 -10 -54 -48 -61
l-32 -6 0 67 0 68 32 -7 c18 -3 36 -12 40 -19z"/>
<path d="M10550 230 c-41 -41 -14 -130 39 -130 22 0 69 35 59 45 -3 4 -16 -3
-27 -14 -12 -12 -25 -21 -31 -21 -19 0 -50 40 -50 65 0 27 32 65 54 65 8 0 22
-10 30 -22 13 -18 16 -19 16 -6 0 18 -28 38 -54 38 -9 0 -25 -9 -36 -20z"/>
<path d="M10683 175 c0 -44 2 -61 4 -38 8 80 58 80 66 0 l4 -42 1 46 c2 52
-15 75 -47 64 -16 -5 -20 -1 -24 22 -2 15 -4 -8 -4 -52z"/>
<path d="M11243 175 c0 -44 2 -61 4 -37 2 23 2 59 0 80 -2 20 -4 1 -4 -43z"/>
<path d="M12251 224 c-12 -15 -21 -37 -21 -49 0 -30 37 -75 61 -75 30 0 59 18
59 37 0 14 -4 13 -20 -5 -25 -26 -43 -28 -64 -6 -33 32 -11 114 29 114 8 0 23
-10 35 -22 11 -12 20 -17 20 -11 0 17 -35 43 -58 43 -11 0 -30 -12 -41 -26z"/>
<path d="M4911 228 c-1 -10 -7 -18 -13 -18 -10 0 -10 -2 -1 -8 6 -4 13 -27 15
-51 2 -29 8 -46 18 -49 12 -4 13 -2 3 9 -7 7 -13 30 -13 51 0 24 5 38 13 38 8
0 9 3 1 8 -6 4 -14 14 -17 22 -4 12 -6 11 -6 -2z"/>
<path d="M7049 225 c-8 -38 5 -118 21 -123 12 -4 13 -2 3 9 -16 17 -17 71 -1
87 8 8 9 12 1 12 -6 0 -13 8 -15 18 -4 15 -5 15 -9 -3z"/>
<path d="M8149 225 c-8 -39 6 -118 21 -123 12 -4 13 -2 3 9 -7 7 -13 30 -13
51 0 24 5 38 13 38 8 0 9 3 1 8 -6 4 -13 14 -16 22 -4 11 -6 10 -9 -5z"/>
<path d="M8319 225 c-8 -39 6 -118 21 -123 12 -4 13 -2 3 9 -7 7 -13 30 -13
51 0 24 5 38 13 38 8 0 9 3 1 8 -6 4 -13 14 -16 22 -4 11 -6 10 -9 -5z"/>
<path d="M9659 225 c-8 -38 5 -118 21 -123 12 -4 13 -2 3 9 -16 17 -17 71 -1
87 8 8 9 12 1 12 -6 0 -13 8 -15 18 -4 15 -5 15 -9 -3z"/>
<path d="M12501 228 c-1 -10 -7 -18 -13 -18 -10 0 -10 -2 -1 -8 6 -4 13 -27
15 -51 2 -29 8 -46 18 -49 12 -4 13 -2 3 9 -7 7 -13 30 -13 51 0 24 5 38 13
38 8 0 9 3 1 8 -6 4 -14 14 -17 22 -4 12 -6 11 -6 -2z"/>
<path d="M4302 150 c1 -49 2 -51 5 -13 3 30 11 47 26 58 22 15 22 15 -6 13
-26 -2 -27 -4 -25 -58z"/>
<path d="M4370 195 c-14 -17 0 -21 17 -4 13 13 43 5 43 -10 0 -6 -15 -14 -32
-19 -26 -6 -33 -14 -33 -33 0 -21 4 -24 42 -25 l43 -1 -6 41 c-3 23 -7 47 -10
54 -5 17 -49 15 -64 -3z m46 -73 c-15 -15 -17 -15 -33 0 -17 18 -17 18 27 31
22 6 25 -12 6 -31z"/>
<path d="M4482 150 c1 -49 2 -50 5 -13 8 80 58 80 66 0 l4 -42 1 46 c2 53 -10
68 -50 66 -27 -2 -28 -4 -26 -57z"/>
<path d="M4597 203 c-17 -16 -5 -42 23 -52 33 -11 39 -28 14 -38 -10 -4 -22 1
-30 12 -8 10 -16 16 -19 14 -3 -3 1 -14 9 -24 9 -13 20 -16 39 -11 38 9 36 44
-3 59 -16 6 -30 15 -30 20 0 14 30 19 45 7 9 -7 15 -8 15 -2 0 17 -49 30 -63
15z"/>
<path d="M4703 203 c-7 -2 -13 -9 -13 -14 0 -5 9 -4 20 3 16 11 23 10 37 -5
16 -16 15 -17 -15 -23 -67 -13 -64 -66 4 -61 33 2 34 3 34 48 0 54 -22 71 -67
52z m51 -67 c-7 -19 -35 -29 -47 -17 -14 14 1 31 28 31 17 0 23 -4 19 -14z"/>
<path d="M4816 197 c-22 -16 -18 -75 7 -91 19 -12 47 0 56 25 3 9 -1 8 -13 -4
-21 -20 -28 -21 -44 -5 -17 17 -15 53 3 68 13 10 19 10 35 -5 21 -19 28 -7 8
13 -15 15 -30 15 -52 -1z"/>
<path d="M4963 155 c0 -33 2 -45 4 -27 2 18 2 45 0 60 -2 15 -4 0 -4 -33z"/>
<path d="M5018 199 c-27 -15 -24 -75 3 -90 36 -19 69 3 69 45 0 47 -34 68 -72
45z m53 -23 c13 -28 -3 -66 -27 -66 -23 0 -38 43 -25 69 15 28 39 27 52 -3z"/>
<path d="M5122 150 c1 -49 2 -50 5 -13 8 80 58 80 66 0 l4 -42 1 46 c2 53 -10
68 -50 66 -27 -2 -28 -4 -26 -57z"/>
<path d="M6541 150 l2 -55 6 43 c13 80 50 83 52 4 l2 -47 6 43 c13 78 51 83
51 6 0 -24 5 -44 10 -44 15 0 12 87 -2 97 -7 4 -39 8 -70 8 l-58 0 1 -55z"/>
<path d="M6713 184 c-15 -24 -15 -29 -2 -53 10 -17 23 -26 39 -26 16 0 29 9
39 26 13 24 13 29 -2 53 -10 14 -26 26 -37 26 -11 0 -27 -12 -37 -26z m55 4
c30 -30 -1 -94 -33 -68 -18 15 -20 51 -3 68 15 15 21 15 36 0z"/>
<path d="M6820 166 c0 -49 13 -65 52 -63 27 2 28 4 26 57 -1 49 -2 50 -5 13
-7 -77 -53 -84 -53 -7 0 24 -4 44 -10 44 -5 0 -10 -20 -10 -44z"/>
<path d="M6942 150 l2 -55 3 47 c3 30 9 48 19 52 26 10 34 -3 34 -50 0 -24 5
-44 10 -44 13 0 13 51 0 85 -8 20 -16 25 -40 23 -30 -2 -30 -3 -28 -58z"/>
<path d="M8210 196 c-14 -18 0 -22 17 -5 13 13 43 5 43 -10 0 -6 -15 -14 -32
-19 -26 -6 -33 -14 -33 -33 0 -21 5 -24 40 -25 l40 -1 -5 51 c-4 46 -8 51 -31
54 -14 2 -31 -4 -39 -12z m47 -73 c-17 -17 -51 -10 -45 9 5 15 52 28 57 15 2
-5 -4 -16 -12 -24z"/>
<path d="M8372 169 c-2 -53 10 -68 50 -66 27 2 28 4 27 57 l-2 55 -6 -43 c-4
-23 -13 -48 -19 -54 -18 -18 -40 9 -45 55 l-4 42 -1 -46z"/>
<path d="M8493 204 c-25 -11 -14 -42 18 -53 17 -6 29 -16 27 -23 -7 -19 -25
-20 -43 -1 -12 12 -17 13 -14 4 9 -25 37 -37 57 -25 31 20 26 42 -14 59 -29
12 -35 18 -26 27 10 10 17 10 33 -1 18 -10 20 -10 17 1 -5 14 -35 20 -55 12z"/>
<path d="M9550 195 c-14 -17 0 -21 17 -4 13 13 43 5 43 -10 0 -6 -15 -14 -32
-19 -26 -6 -33 -14 -33 -33 0 -21 4 -24 42 -25 l43 -1 -6 41 c-3 23 -7 47 -10
54 -5 17 -49 15 -64 -3z m46 -73 c-15 -15 -17 -15 -33 0 -17 18 -17 18 27 31
22 6 25 -12 6 -31z"/>
<path d="M9726 194 c-32 -31 -10 -94 33 -94 21 0 47 27 37 38 -4 4 -12 -1 -17
-11 -13 -23 -36 -22 -49 3 -10 18 -8 20 30 20 33 0 40 3 40 20 0 18 -26 40
-49 40 -5 0 -17 -7 -25 -16z m52 -17 c3 -12 -3 -17 -22 -17 -25 0 -35 18 -19
34 12 12 38 2 41 -17z"/>
<path d="M10803 203 c-7 -2 -13 -9 -13 -14 0 -5 9 -4 20 3 16 11 23 10 37 -5
16 -16 15 -17 -15 -23 -67 -13 -64 -66 4 -61 33 2 34 3 34 48 0 54 -22 71 -67
52z m51 -67 c-7 -19 -35 -29 -47 -17 -14 14 1 31 28 31 17 0 23 -4 19 -14z"/>
<path d="M10900 153 c0 -66 18 -70 22 -5 3 39 6 47 23 47 17 0 21 -9 26 -50
l6 -50 -1 55 -1 55 -37 0 -38 1 0 -53z"/>
<path d="M11022 150 l2 -55 3 47 c3 30 9 48 19 52 26 10 34 -3 34 -50 0 -24 5
-44 10 -44 13 0 13 51 0 85 -8 20 -16 25 -40 23 -30 -2 -30 -3 -28 -58z"/>
<path d="M11136 188 c-21 -29 -20 -51 2 -71 22 -20 43 -22 60 -5 20 20 14 33
-7 14 -20 -18 -51 -12 -51 10 0 9 12 14 35 14 27 0 35 4 35 18 0 43 -49 56
-74 20z m52 0 c19 -19 14 -28 -18 -28 -41 0 -40 33 1 39 3 1 10 -4 17 -11z"/>
<path d="M12393 203 c-7 -2 -13 -9 -13 -14 0 -5 9 -4 20 3 16 11 23 10 37 -5
16 -16 15 -17 -15 -23 -67 -13 -64 -66 4 -61 33 2 34 3 34 48 0 54 -22 71 -67
52z m51 -67 c-7 -19 -35 -29 -47 -17 -14 14 1 31 28 31 17 0 23 -4 19 -14z"/>
<path d="M12560 195 c-39 -47 16 -125 58 -83 20 20 13 32 -8 13 -16 -15 -22
-15 -35 -5 -25 21 -17 30 25 30 44 0 47 5 24 38 -18 25 -46 29 -64 7z m44 -1
c28 -11 18 -34 -14 -34 -32 0 -37 9 -18 28 14 14 12 14 32 6z"/>
<path d="M12672 198 c-17 -17 -15 -73 3 -88 8 -7 24 -10 35 -7 12 3 20 0 20
-8 0 -19 -28 -27 -51 -15 -13 7 -19 7 -19 1 0 -6 11 -13 25 -17 41 -10 55 10
55 80 0 60 -1 62 -28 64 -15 1 -33 -3 -40 -10z m46 -10 c17 -17 15 -53 -3 -68
-32 -26 -63 38 -33 68 15 15 21 15 36 0z"/>
<path d="M12788 199 c-27 -15 -24 -75 3 -90 36 -19 69 3 69 45 0 47 -34 68
-72 45z m53 -23 c13 -28 -3 -66 -27 -66 -23 0 -38 43 -25 69 15 28 39 27 52
-3z"/>
<path d="M12892 150 c1 -49 2 -51 5 -13 3 30 11 47 26 58 22 15 22 15 -6 13
-26 -2 -27 -4 -25 -58z"/>
<path d="M12950 200 c0 -6 7 -27 15 -47 19 -46 19 -63 -2 -80 -17 -13 -17 -14
1 -11 13 2 26 23 43 67 13 35 22 69 20 75 -2 6 -10 -8 -17 -31 -14 -47 -25
-48 -35 -3 -6 29 -25 52 -25 30z"/>
<path d="M0 10 c0 -7 3200 -10 9580 -10 6380 0 9580 3 9580 10 0 7 -3200 10
-9580 10 -6380 0 -9580 -3 -9580 -10z"/>
</g>
</svg>
