<?xml version="1.0" encoding="UTF-8"?>
<svg version="1.1" viewBox="0 0 1461 2048" width="748" height="1048" xmlns="http://www.w3.org/2000/svg">
<path transform="translate(507,140)" d="m0 0h2l5 24 9 39 15 53 17 50 19 48 2 7-5-5-12-13-7-8-12-14-9-10 3 22 7 45 7 52 6 53 5 56 3 46 2 51 1 88 10 18 13 24 13 23 17 32 13 23 5 9-1 2-14-13-8-7-30-27-13-11-1 65v126l1 74 3 99 4 78 5 68 7 70 8 58v2l-5-2-30-16-76-42-24-13-18-10-21-12-1-5 9-53 6-55 2-39v-63l-3-44-3-27-6-40-11-51-11-40v101l-2 52-3 43-6 54-8 50-9 42-10 38-1 2-5-2-21-12-27-16-26-15-215-126-3-2v-738l22-13 125-73 288-168z" fill="#113376"/>
<path transform="translate(727,45)" d="m0 0 5 2 26 14 21 12 25 14 21 12 25 14 69 39 25 14 11 7 5 8 19 38 13 30 14 38 12 38 12 49 8 44 5 37 2 21v18h2l1-14 3-32 1-16v-56l-2-29-4-33-6-34-10-40-6-20 1-3 28 16 24 14 26 15 15 9 2-2 18-44 14-34 3-1 44 18 39 16 34 14-3 10-17 41-19 47 3 3 28 16 52 30 17 10 1 1v738l-28 16-27 16-28 16-27 16-28 16-27 16-28 16-72 42-26 15-48 28-26 15-72 42-26 15-27 16-28 16-27 16-23 13-10 6-2-1 21-35 15-28 14-28 15-35 14-38 10-32 9-34 7-33v-3l-16 10-39 26-2-1 11-13 11-14 11-13 11-14 14-17 8-10 13-16 3-15 9-59 8-78 4-70 1-47v-54l-2-64-4-66-7-75-8-65v-8h-2l-1 6-9 22-11 21-12 18-13 17-1-3 13-48 10-50 4-27 3-30 1-17v-37l-10-51-12-48-13-43-16-45-19-46-17-36-8-17-12-22-11-21-9-15-13-22z" fill="#113376"/>
<path transform="translate(507,140)" d="m0 0h2l5 24 9 39 15 53 17 50 19 48 2 7-5-5-12-13-7-8-12-14-9-10 3 22 7 45 7 52 5 43v7l-2-4-3-9v-7l-6 1-3-1-1 5-3 5-7 3-6-1h-10l-5 1-4 4-5 3-8 1-8-2-1-4-8-4-16 2-4 10-7 1 2-5-7 2 1 2h-7l-7-1-1-3-8-1h-37l-5 1h-9v2l-11-1-1-2-10-2-23 2-20-1-7 2-3 2-4-2-5-1-6-1-1 2 2 1-2 1-5-1v-2h-25l-10 2-17-1-8-1h-10l-3-1h-9l-5 1h-11l-6 1h-8l-9-2h-2l-2-2-9 2-8 7-3 3-6 2-8-1h-3l-4-1-8-5-11-7-6-3 1-6-4 1v8l-3 8-2 23-1 12-2 88h-1v-210l22-13 125-73 288-168z" fill="#0873B6"/>
<path transform="translate(727,45)" d="m0 0 5 2 26 14 21 12 25 14 21 12 25 14 69 39 25 14 11 7 5 8 19 38 13 30 14 38 12 38 12 49 7 37v5l-4-4-1-5h-2v-2l-5 5-2-1-2 5-6 2h-31l-10-2h-20l-8-2-12 6-7 6-11 5-22-2-9-2-5-5-4-1-4 7-1 4-1 18-2 1-1-37-10-51-12-48-13-43-16-45-19-46-17-36-8-17-12-22-11-21-9-15-13-22z" fill="#0873B6"/>
<path transform="translate(531,354)" d="m0 0 4 2 5 21 1 1 7 52 5 43v7l-2-4-3-9v-7l-6 1-3-1-1 5-3 5-7 3-6-1h-10l-5 1-4 4-5 3-8 1-8-2-1-4-8-4-16 2-4 10-7 1 2-5-7 2 1 2h-7l-7-1-1-3-8-1h-37l-5 1h-9v2l-11-1-1-2-10-2-23 2-20-1-7 2-3 2-4-2-5-1-6-1-1 2 2 1-2 1-5-1v-2h-25l-10 2-17-1-8-1h-10l-3-1h-9l-5 1h-11l-6 1h-8l-9-2h-2l-2-2-9 2-8 7-3 3-6 2-8-1h-3l-4-1-8-5-11-7-6-3 1-6-4 1v8l-3 8-2 23-1 12-2 88h-1v-210l22-13 5-3 10-4 9-5 6-2 13-1-5 7-1 4 12 2 6-2 9-1 14-1 18 3h14l15-2 17-2 11-2 22-1 25-1h29l9 1 5-1 13 1 16-1 15-2h20l8-1 18 2 8 1 6-2 14-2h14l6 1 8-1 6-2 9 1 5 2 14 2 8-4 6-12z" fill="#0B60A3"/>
<path transform="translate(1153,190)" d="m0 0 9 3 37 15 39 16 34 14-3 10-17 41-19 47 3 3 28 16 52 30 17 10 1 1v25h-2l-3-3-6-1-1 4-10 3-32 3-8 1-14-1-10-1h-17l-4-2-8 1-5-1h-15l-24-1 2 2-2 1-3-1v-2l-10 2-6-3-13-1h-16l-7 1-12 9-8 1-18-1-9-2-6-3-3-5v-3h-3l-5 10-2 10-1 18h-2l1-24v-56l-2-29-4-33-6-34-10-40-6-20 1-3 28 16 24 14 26 15 15 9 2-2 18-44 14-34z" fill="#0B60A3"/>
<path transform="translate(637,1674)" d="m0 0h40l3 6 21 73 22 76 4 14 2-4 29-106 16-58 1-1h41l1 1v241l-1 1h-37l-1-1v-119l-18 65-14 52-2 3h-38l-5-18-18-74-7-29-1 120-2 1h-36l-1-1v-241z" fill="#113477"/>
<path transform="translate(1178,1669)" d="m0 0 18 1 13 4 10 6 10 9 7 10 5 13 1 7v152l-3 13-7 13-7 8-11 8-12 5-11 2h-21l-16-4-10-6-10-9-6-8-5-10-3-16v-145l2-12 5-12 8-11 8-7 10-6 13-4zm1 34-9 3-7 6-3 5-2 10v136l3 11 7 8 7 3h13l8-4 5-6 3-10 1-9v-124l-2-16-3-6-6-5-5-2z" fill="#113477"/>
<path transform="translate(733,597)" d="m0 0h1l8 100 5 99 1 26 1 64v95l-2 69-3 62-5 70-5 57-6 56-8 63-8 55-9 56-5 28-2 1-16-7 1-17 12-108 10-105 9-114 7-110 6-125 3-83 3-118 1-72z" fill="#1F2C57"/>
<path transform="translate(413,1672)" d="m0 0h37l1 184 2 14 5 9 7 4 3 1h13l8-4 5-8 2-10 1-190h38v194l-2 13-5 12-6 9-9 9-10 6-12 4-7 1h-21l-14-3-13-7-8-7-8-11-5-11-2-9z" fill="#113477"/>
<path transform="translate(0,1670)" d="m0 0h76l13 4 10 6 10 9 7 10 5 13 1 7v79l-4 16-6 11-8 8-14 7-12 2h-39v74l-3 1h-36zm39 32v109h28l8-3 5-4 4-10 1-11v-51l-1-13-3-9-5-4-8-3-9-1z" fill="#113477"/>
<path transform="translate(1153,190)" d="m0 0 9 3 37 15 39 16 12 5-4 2h-4v16l-6 8-9 5-4 2-7 3h-3l-3 9-6 12-5 5-4 3v6l-7 3 5 5 1 2-10 1 4 6-8-1-2 4-13 2-21 6-5 4-2 1h-19l-18 6-4 1-2-4-5 1-2 1h-12l-7-3-7-2-4-4-4 11-1 9-2-2-4-33-6-34-10-40-6-20 1-3 28 16 24 14 26 15 15 9 2-2 18-44 14-34z" fill="#0873B6"/>
<path transform="translate(915,1674)" d="m0 0h112v35h-74v65h74v35h-74v73h74v34l-1 1h-111l-1-1v-241z" fill="#113477"/>
<path transform="translate(1335,1674)" d="m0 0h39l4 10 15 44 3 9 4-10 18-52 2-1h37l-1 7-34 101-5 15 3 11 19 56 15 43 3 10h-39l-3-5-17-50-2-4-19 56-2 3h-39l1-5 22-65 15-43 1-3v-7l-23-68-14-41-3-8z" fill="#113477"/>
<path transform="translate(727,45)" d="m0 0 5 2 26 14 21 12 25 14 21 12 25 14 69 39 25 14 11 7 5 8 17 34h-3l-2-2-3-7-2-3-5 1-4 5-4 3-5 2-14-3-11-4-30-4h-11l-5 3-7 6-8 4h-22l-13-5-9-4-2-2v14l1 6h-2l-19-46-17-36-8-17-12-22-11-21-9-15-13-22z" fill="#0896DC"/>
<path transform="translate(922,311)" d="m0 0h7v4h8l7 2h8l7 3 14 7 6 2h15l7-1 3-3 9-1 2 1v2l2 1 1 5h2l10 41 7 37v5l-4-4-1-5h-2v-2l-5 5-2-1-2 5-6 2h-31l-10-2h-20l-8-2-12 6-7 6-11 5-22-2-9-2-5-5-4-1-4 7-1 4-1 18-2 1-1-37-10-51-3-13-1-17 2-12 6 2 7 6 10 3 6 1 14 1 5 1 7-2 3-4 4-10 3-5z" fill="#0B60A3"/>
<path transform="translate(213,1674)" d="m0 0h34l4 1v207h75v34l-2 1h-111l-1-3v-227z" fill="#113578"/>
<path transform="translate(1086)" d="m0 0 9 3 78 32 12 5-3 10-32 78-5 12-5-1-37-15-49-20-9-4 10-26 15-36 15-37z" fill="#0897DD"/>
<path transform="translate(507,140)" d="m0 0h2l5 24 9 39 9 32v2h-2l-5-12-1-4-10 1-4 4-3 2h-5l-7-3h-7l-3-3-7 1-28 10-16 4-5 2-20 1-14 1-13 2h-9l-3-2v-2l-3-1 1-5 3-3 8-6 1-4-9 4-8 3-4 2-3-1 23-13 27-16 26-15 72-42z" fill="#088ACE"/>
<path transform="translate(1310,74)" d="m0 0 9 3 39 16 34 14-3 9-22 54-8 19-6-1-76-31 1-5 16-39z" fill="#088ACE"/>
<path transform="translate(1327,1122)" d="m0 0 4 1-1 7-5 2 1 3-6 2-2 4-4 2-1 3-48 28-26 15-27 16-28 16-48 28-26 15-27 16-28 16-48 28-26 15-27 16-28 16-27 16-28 16-27 16-28 16-27 16-23 13-10 6-2-1 11-18 8-7h2v-3l9-5 2-2 7-3 8-4h2v-2l12-5 6-4 15-5v-2l8-4 17-7 15-8 5-4 4-1v-2l17-10 13-8 8-5 7-4 9-5 14-9 7-3 14-9 11-6 13-8 5-3 11-6 25-15 11-6 11-7 6-3 18-10 12-8 12-6 12-8 12-6 15-9 8-5 10-5 15-10 12-6 9-6 15-8 15-9 12-7 6-3 8-5 7-5 9-4 14-9 18-10 5-3 7-3 6-4 1-4z" fill="#0F2569"/>
<path transform="translate(797,160)" d="m0 0 8 2 16 5h6l2-2 7-1 2-1 10-1h9l16 4 25 4 12 2h7l9-3 4-2 19 5 6 3 5 6 17 34h-3l-2-2-3-7-2-3-5 1-4 5-4 3-5 2-14-3-11-4-30-4h-11l-5 3-7 6-8 4h-22l-13-5-9-4-2-2v14l1 6h-2l-18-44-3-19h2z" fill="#088ACE"/>
<path transform="translate(377,1975)" d="m0 0 5 1v70l-5 1v-6l-8 6-3 1h-9l-8-4-5-7-2-8v-16l3-10 4-5 6-3 8-1 9 3 3 3 1-24zm-18 24-7 4-3 5-1 4v19l3 7 5 4 3 1h7l6-4 3-4 1-4v-20l-4-8-6-4z" fill="#172637"/>
<path transform="translate(173,1975)" d="m0 0h5v72h-5l-1-5-9 6h-10l-6-3-5-5-3-7-1-7v-9l2-12 4-6 7-4 8-1 9 3 3 3 1-24zm-18 24-6 4-4 6-1 3v19l4 8 4 3 3 1h7l5-3 4-5 1-3v-22l-3-6-5-4-2-1z" fill="#182533"/>
<path transform="translate(24,1975)" d="m0 0h6l12 36 11 34-1 3-5-2-4-12v-2h-33l-3 12-2 4-5-1 1-5 21-65zm2 7-10 31-4 12v3h29l-2-10-12-36z" fill="#182430"/>
<path transform="translate(390,1154)" d="m0 0 2 4 1 9-1 13v8l-6 37-9 42-3 7-4-2 1-12 1-6 2-11 2-18 3-8-2-1 3-17 3-2h-2l2-16 3-12 1-11z" fill="#0F266A"/>
<path transform="translate(1131,1994)" d="m0 0 9 1 7 4 4 6 2 9v8l-1 1-34 1 2 12 6 5 3 1h8l6-3 6-5 2 1-1 5-7 6-5 2h-10l-10-5-4-7-2-8v-16l3-9 5-5 5-3zm-2 5-6 3-4 5-1 3v8h29v-8l-4-7-4-3z" fill="#172838"/>
<path transform="translate(511,1994)" d="m0 0 10 1 6 4 4 6 1 4v38h-5v-6l-7 5-7 2h-9l-8-5-3-4v-11l4-6 6-4 4-1h19l-1-10-3-5-6-2h-7l-6 3-4 5-4-1 1-5 7-6zm1 27-8 2-5 4-1 9 2 4 6 3h10l7-4 3-4v-14z" fill="#182431"/>
<path transform="translate(287,1994)" d="m0 0 10 1 7 4 4 8v40h-5l-1-5-6 4-7 2h-9l-8-5-3-5v-10l4-6 4-3 7-2 18-1-1-9-3-5-6-2-9 1-4 2-3 5-5-1 1-5 7-6zm2 27-9 2-5 5-1 2v6l5 6 3 1h10l7-4 3-4 1-5v-8l-1-1z" fill="#182431"/>
<path transform="translate(1183,1994)" d="m0 0 9 1 7 4 4 7v41h-5l-1-5-8 5-4 1h-9l-8-4-4-7v-7l4-8 7-4 4-1h19l-2-11-5-5-3-1h-7l-6 3-4 5-5-1 2-6 6-5zm1 27-9 2-5 6v9l5 4 2 1h10l8-4 3-6v-11l-1-1z" fill="#182430"/>
<path transform="translate(410 2e3)" d="m0 0h15l8 5 4 7 1 5v10l-1 1h-34l2 12 4 5 5 2h9l6-4 5-4 3 3-7 8-7 3h-10l-8-4-5-6-2-5-1-9v-9l2-9 4-6 5-4zm4 4-6 3-4 5-1 4v7h29v-9l-4-6-4-3-3-1z" fill="#172737"/>
<path transform="translate(207 2e3)" d="m0 0h14l7 4 5 8 1 4v12h-35l2 11 4 6 6 2h8l7-4 2-3 5 1-3 6-5 4-6 2h-10l-8-4-5-6-2-6v-23l4-8 6-5zm3 4-7 4-3 5-1 10h30l-1-9-3-5-5-4-3-1z" fill="#172635"/>
<path transform="translate(507,140)" d="m0 0h2l5 24 1 7-2 1-4-5-5-2-3 3-2-1v-2l-3 2v4l-8 5-11 2-1-2 6-8 4-4-13-1-10 5 1-3 23-13 17-10z" fill="#0896DC"/>
<path transform="translate(1390,1994)" d="m0 0 11 2 5 4 3 6 1 5v35l-1 1h-5l-1-38-3-6-7-3-8 1-5 4-2 4-1 38h-5l-1-1v-50l5-1 2 5 5-4z" fill="#162C40"/>
<path transform="translate(954 2e3)" d="m0 0h5l1 38 3 6 7 3 9-1 5-5 1-3 1-37 5-1 1 1v50l-5 1-2-5-6 5-3 1h-9l-8-4-4-5-2-10v-33z" fill="#162C40"/>
<path transform="translate(1328 2e3)" d="m0 0h14l6 3 6 7 2 9v13l-2 10-7 8-7 3h-10l-9-5-5-8-1-3v-21l3-8 4-5zm4 4-8 4-3 6-1 5v14l3 9 5 5 3 1h8l6-3 4-5 1-3v-21l-3-7-5-4z" fill="#182431"/>
<path transform="translate(911 2e3)" d="m0 0h14l7 4 4 5 2 4 1 6v14l-2 9-7 8-7 3h-10l-8-4-5-6-2-7v-21l3-8 7-6zm4 4-8 4-3 5-1 5v16l3 9 5 4 3 1h8l6-3 4-5 1-5v-19l-3-7-5-4z" fill="#182430"/>
<path transform="translate(727 2e3)" d="m0 0h14l6 3 5 6 2 4 1 7v12l-2 10-7 8-7 3h-10l-8-4-5-6-2-6v-21l3-9 7-6zm4 4-8 4-3 5-1 5v16l3 9 5 4 3 1h8l6-3 4-5 1-4v-20l-3-7-5-4z" fill="#182431"/>
<path transform="translate(771 2e3)" d="m0 0 5 1-1 5 9-6h13l8 5 3 6 1 10v18l-1 13h-5l-1-38-3-6-7-3-8 1-4 2-3 6-1 38h-5l-1-1v-50z" fill="#17293B"/>
<path transform="translate(65 2e3)" d="m0 0 5 1 1 37 3 6 7 3 9-1 5-5 1-2 1-38 5-1 1 1v50l-5 1-2-5-6 5-3 1h-9l-8-4-4-5-1-3-1-22z" fill="#17293B"/>
<path transform="translate(846 2e3)" d="m0 0 5 1-1 5 9-6h13l7 4 4 7v41h-5l-1-38-3-5-4-3-8-1-7 3-3 5-1 39h-6v-51z" fill="#172839"/>
<path transform="translate(1436 2e3)" d="m0 0h12l7 3 5 6 1 5-5 1-5-8-6-2-10 1-5 5 1 6 10 5 13 5 5 4 2 3v8l-5 7-10 4h-7l-9-3-6-7v-6l5 1 3 6 6 3h9l6-2 1-3v-7l-6-4-16-6-5-3-3-5v-7l4-6z" fill="#172533"/>
<path transform="translate(1019 2e3)" d="m0 0h12l8 4 4 5v5l-4 1-4-7-8-3-9 1-5 4v6l3 3 19 7 6 4 3 7-2 8-7 6-6 2h-7l-9-3-5-5-2-4 1-4h4l3 6 4 3 3 1h9l6-4 1-7-4-4-19-7-6-5-1-2v-9l6-7z" fill="#172533"/>
<path transform="translate(1277 2e3)" d="m0 0h13l8 4 4 6-1 5-4-1-3-6-8-3-9 1-4 2-1 2v8l6 2 19 8 5 6v8l-3 5-5 4-7 2h-7l-10-4-4-5-1-6 5-1 3 7 6 3h9l6-3 2-3v-5l-1-3-6-2-16-6-6-5-1-2v-9l3-5z" fill="#182432"/>
<path transform="translate(650 2e3)" d="m0 0h13l8 4 4 6-1 5-4-1-3-6-8-3-9 1-4 2-1 2v8l6 2 19 8 5 6v9l-6 7-9 3h-7l-10-4-4-5-1-6 5-1 3 7 7 3h9l6-4 1-7-4-4-19-7-6-5-1-2v-9l3-5z" fill="#172532"/>
<path transform="translate(563 2e3)" d="m0 0h5l4 10 10 31v2h2l1-7 12-36h6l-2 9-14 40-2 3h-5l-5-12-12-36z" fill="#182431"/>
<path transform="translate(843,1198)" d="m0 0 4 2 3 1v7l-11 8-16 10-19 13-2-1 11-13 11-14 7-6 1-2h3v-2z" fill="#0F286C"/>
<path transform="translate(473,1975)" d="m0 0h5l1 1v71h-6z" fill="#143048"/>
<path transform="translate(1219,1975)" d="m0 0h5l1 1v69l-1 2h-5z" fill="#162D42"/>
<path transform="translate(250,1975)" d="m0 0h5v72h-5l-1-3v-68z" fill="#172C40"/>
<path transform="translate(1078 2e3)" d="m0 0h5l1 7 5-5 3-2h10l2 3-1 3-11 1-5 2-3 9-1 34h-5z" fill="#18222B"/>
<path transform="translate(617 2e3)" d="m0 0 5 1v50l-5 1-1-1v-50z" fill="#14344C"/>
<path transform="translate(1243 2e3)" d="m0 0h5l1 1v45l-1 6h-5z" fill="#172C40"/>
<path transform="translate(366,1283)" d="m0 0 4 3v8l-4 13-5-2-7-4-3-9-2-1 8-1 4-4h5z" fill="#0F266A"/>
<path transform="translate(691 2e3)" d="m0 0h5v52h-5z" fill="#191C21"/>
<path transform="translate(91,383)" d="m0 0 1 2-17 10-3 5-1 57-1 53h-1v-114z" fill="#0873B6"/>
<path transform="translate(584,1408)" d="m0 0 4 1 3 6 2 5v3h2l-1 8h-4v-2l-4-1-5-5-2-6 4-6z" fill="#102367"/>
<path transform="translate(1325,80)" d="m0 0 16 6 32 13v2l-9-3-11-3-21-9-7-4z" fill="#0897DD"/>
<path transform="translate(616,1975)" d="m0 0h6l2 2v5l-5 3-4-2-1-5z" fill="#172836"/>
<path transform="translate(1243,1975)" d="m0 0h6l2 2v5l-2 2h-6l-2-3 1-5z" fill="#172533"/>
<path transform="translate(691,1975)" d="m0 0 7 1 1 5-5 4-5-3v-5z" fill="#17232F"/>
<path transform="translate(733,597)" d="m0 0h1l2 25v11h-3z" fill="#0F4386"/>
<path transform="translate(280,1975)" d="m0 0h5l6 11v2l-5-1-6-10z" fill="#17293B"/>
<path transform="translate(1136,1975)" d="m0 0h4l-2 5-5 8-3 1-1-3 5-9z" fill="#17283B"/>
<path transform="translate(392,1135)" d="m0 0 2 3-2 9-2 4-2-2 1-8 2-5z" fill="#102367"/>
<path transform="translate(401,1021)" d="m0 0h2v7l-2 6h-2v-5l-2 1v-7l2 3z" fill="#102367"/>
<path transform="translate(397,1038)" d="m0 0h2v2h2l1 4-2 2-1 9-2-2z" fill="#102367"/>
<path transform="translate(115,369)" d="m0 0v3l-15 8-2-1z" fill="#0877BA"/>
<path transform="translate(391,1119)" d="m0 0 3 3v7l-3 2-1-8z" fill="#102367"/>
<path transform="translate(500,150)" d="m0 0h3l1 4-8 4-2-1 3-5z" fill="#098ACE"/>
<path transform="translate(753,1470)" d="m0 0" fill="#0897DD"/>
</svg>
